<svg width="774" height="597" viewBox="0 0 774 597" fill="none" xmlns="http://www.w3.org/2000/svg">
<g clip-path="url(#clip0_138_690)">
<path opacity="0.1" d="M354.669 526.502C532.31 526.502 676.317 515.296 676.317 501.473C676.317 487.65 532.31 476.444 354.669 476.444C177.027 476.444 33.0201 487.65 33.0201 501.473C33.0201 515.296 177.027 526.502 354.669 526.502Z" fill="#2FB245"/>
<g opacity="0.1">
<path d="M639.551 358.854C637.629 353.006 629.833 350.313 622.144 352.847C621.036 353.209 619.964 353.673 618.943 354.235C618.451 354.098 617.944 353.977 617.429 353.886C617.849 352.203 618.01 350.467 617.906 348.736C620.558 346.958 622.71 344.526 624.154 341.674C625.599 338.823 626.288 335.647 626.155 332.452C628.8 330.668 630.945 328.235 632.384 325.384C633.823 322.533 634.508 319.36 634.374 316.168C637.04 314.407 639.19 311.968 640.603 309.099C644.311 301.742 642.775 293.475 637.167 290.631C631.559 287.787 623.998 291.45 620.29 298.807C618.82 301.646 618.132 304.828 618.299 308.022C615.654 309.805 613.51 312.239 612.071 315.09C610.632 317.941 609.946 321.114 610.08 324.306C607.435 326.089 605.291 328.523 603.852 331.374C602.413 334.225 601.727 337.398 601.861 340.59C599.21 342.371 597.059 344.804 595.615 347.657C594.17 350.509 593.481 353.686 593.612 356.882C590.946 358.642 588.797 361.082 587.383 363.95C586.686 365.333 586.158 366.795 585.809 368.304C584.879 366.942 583.746 365.732 582.449 364.716C582.3 363.558 582.047 362.416 581.692 361.303C579.164 353.59 572.383 348.888 566.556 350.814C560.728 352.74 558.034 360.545 560.562 368.258C561.596 371.566 563.588 374.491 566.283 376.662C566.432 377.82 566.685 378.963 567.04 380.075C568.508 384.55 571.407 388.008 574.722 389.745C574.428 390.711 574.218 391.701 574.094 392.703C570.968 395.716 568.956 399.703 568.387 404.012C565.259 407.026 563.247 411.016 562.681 415.328C561.132 416.818 559.852 418.566 558.897 420.493C555.181 427.85 556.717 436.125 562.325 438.961C567.933 441.798 575.494 438.15 579.21 430.785C580.189 428.865 580.829 426.789 581.102 424.649C584.227 421.637 586.239 417.649 586.808 413.341C589.936 410.327 591.948 406.336 592.515 402.025C595.619 399.005 597.607 395.017 598.153 390.716C601.293 387.703 603.311 383.705 603.874 379.385C604.837 378.47 605.697 377.453 606.44 376.351C609.532 376.987 612.738 376.786 615.726 375.767C616.834 375.405 617.906 374.941 618.928 374.379C622.275 375.264 625.808 375.137 629.084 374.015C636.751 371.505 641.466 364.709 639.551 358.854Z" fill="#3F3D56"/>
<g opacity="0.1">
<path d="M625.981 335.797C625.187 336.579 624.314 337.278 623.378 337.882C623.497 340.047 623.212 342.216 622.538 344.276C623.133 343.451 623.665 342.581 624.127 341.675C625.065 339.832 625.692 337.845 625.981 335.797Z" fill="black"/>
<path d="M634.2 319.513C633.406 320.295 632.533 320.994 631.597 321.598C631.716 323.763 631.431 325.932 630.757 327.992C631.354 327.166 631.885 326.293 632.346 325.383C633.281 323.541 633.907 321.558 634.2 319.513Z" fill="black"/>
<path d="M615.56 313.453C615.49 312.336 615.533 311.216 615.688 310.108C614.219 311.559 612.997 313.243 612.071 315.091C611.614 316.002 611.229 316.948 610.92 317.92C612.173 316.152 613.747 314.636 615.56 313.453Z" fill="black"/>
<path d="M563.392 411.998C564.053 411.075 564.801 410.216 565.625 409.435C565.753 408.406 565.974 407.391 566.283 406.401C565.625 407.287 565.045 408.228 564.55 409.215C564.093 410.111 563.705 411.042 563.392 411.998Z" fill="black"/>
<path d="M569.099 400.697C569.76 399.774 570.507 398.915 571.331 398.134C571.455 397.131 571.665 396.142 571.959 395.176C571.331 396.036 570.774 396.947 570.294 397.899C569.826 398.8 569.427 399.736 569.099 400.697Z" fill="black"/>
<path d="M617.754 352.081C616.965 352.863 616.094 353.56 615.159 354.159C615.262 355.89 615.101 357.626 614.682 359.309C615.192 359.397 615.698 359.514 616.195 359.658C617.217 359.096 618.289 358.631 619.397 358.27C627.101 355.736 634.889 358.429 636.804 364.277C637.279 365.746 637.362 367.315 637.046 368.827C639.581 365.839 640.633 362.198 639.543 358.861C637.621 353.013 629.826 350.321 622.136 352.854C621.029 353.216 619.957 353.681 618.935 354.242C618.443 354.106 617.936 353.984 617.421 353.893C617.565 353.287 617.671 352.687 617.754 352.081Z" fill="black"/>
<path d="M560.577 417.679C559.919 418.565 559.339 419.506 558.844 420.493C558.384 421.407 557.994 422.356 557.678 423.33C558.354 422.402 559.114 421.538 559.949 420.751C560.065 419.71 560.275 418.682 560.577 417.679Z" fill="black"/>
<path d="M607.303 329.737C607.234 328.62 607.277 327.5 607.431 326.392C605.962 327.843 604.74 329.527 603.814 331.375C603.357 332.286 602.972 333.232 602.663 334.204C603.916 332.436 605.49 330.92 607.303 329.737Z" fill="black"/>
<path d="M595.428 396.147C595.279 397.275 595.026 398.387 594.672 399.469C595.264 398.64 595.792 397.768 596.253 396.86C596.749 395.885 597.162 394.87 597.487 393.826C596.867 394.656 596.179 395.433 595.428 396.147Z" fill="black"/>
<path d="M584.015 418.764C583.867 419.892 583.613 421.004 583.259 422.086C583.856 421.259 584.387 420.387 584.848 419.477C585.341 418.501 585.754 417.486 586.082 416.443C585.461 417.275 584.77 418.052 584.015 418.764Z" fill="black"/>
<path d="M589.722 407.448C589.573 408.576 589.32 409.688 588.965 410.77C589.568 409.957 590.11 409.1 590.585 408.206C591.081 407.232 591.493 406.217 591.818 405.172C591.185 405.988 590.483 406.75 589.722 407.448Z" fill="black"/>
<path d="M601.135 384.838C600.986 385.964 600.733 387.074 600.378 388.153C600.972 387.328 601.5 386.458 601.96 385.551C602.461 384.56 602.876 383.527 603.201 382.464C602.584 383.316 601.893 384.11 601.135 384.838Z" fill="black"/>
<path d="M563.771 356.237C569.613 354.318 576.394 359.013 578.907 366.726C579.261 367.841 579.515 368.986 579.664 370.147C580.961 371.163 582.094 372.373 583.024 373.734C583.373 372.223 583.901 370.759 584.598 369.373C584.863 368.858 585.151 368.365 585.446 367.856C584.587 366.665 583.568 365.598 582.419 364.686C582.27 363.528 582.017 362.385 581.662 361.273C579.134 353.56 572.353 348.857 566.525 350.784C563.195 351.876 560.895 354.887 560.002 358.694C561.026 357.564 562.324 356.717 563.771 356.237Z" fill="black"/>
<path d="M590.865 362.305C590.798 361.19 590.843 360.072 591.001 358.967C589.526 360.417 588.302 362.1 587.376 363.95C586.918 364.859 586.533 365.802 586.225 366.772C587.481 365.007 589.055 363.492 590.865 362.305Z" fill="black"/>
<path d="M599.084 346.013C599.017 344.899 599.062 343.781 599.22 342.676C597.744 344.121 596.519 345.802 595.595 347.651C595.138 348.563 594.753 349.508 594.444 350.48C595.697 348.712 597.271 347.197 599.084 346.013Z" fill="black"/>
<path d="M578.309 430.072C578.16 431.203 577.907 432.318 577.552 433.402C578.796 431.675 579.75 429.756 580.375 427.721C579.756 428.564 579.065 429.351 578.309 430.072Z" fill="black"/>
</g>
<path d="M650.767 283.6C653.434 281.842 655.585 279.401 656.996 276.531C660.712 269.174 659.175 260.899 653.567 258.055C647.959 255.211 640.398 258.874 636.682 266.239C635.211 269.086 634.526 272.275 634.7 275.477C632.054 277.26 629.91 279.694 628.471 282.545C627.032 285.396 626.347 288.569 626.481 291.761C623.811 293.517 621.661 295.958 620.252 298.83C619.796 299.73 619.414 300.666 619.109 301.628C621.085 298.761 623.95 296.628 627.26 295.561C627.637 296.729 628.241 297.811 629.038 298.743C629.835 299.676 630.808 300.441 631.902 300.994C632.996 301.547 634.188 301.877 635.41 301.965C636.632 302.053 637.86 301.897 639.021 301.507C640.139 304.805 640.139 308.38 639.021 311.678C639.612 310.861 640.139 309.998 640.595 309.099C642.063 306.259 642.748 303.078 642.578 299.884C645.226 298.104 647.373 295.671 648.813 292.819C650.252 289.967 650.935 286.793 650.797 283.6H650.767Z" fill="#3F3D56"/>
<path d="M741.101 179.206C743.383 178.14 745.588 176.915 747.701 175.543L723.233 157.628L751.992 172.471C757.81 167.84 762.623 162.066 766.137 155.505C769.65 148.944 771.79 141.733 772.426 134.314L723.55 134.814L772.532 126.608C772.025 119.181 770.009 111.937 766.607 105.32C763.205 98.7026 758.489 92.8523 752.749 88.1283C747.009 83.4043 740.365 79.9062 733.227 77.849C726.088 75.7919 718.606 75.219 711.238 76.1656C703.871 77.1122 696.774 79.5583 690.384 83.3537C683.995 87.149 678.446 92.2135 674.081 98.236C669.715 104.258 666.625 111.112 664.998 118.375C663.372 125.638 663.245 133.158 664.624 140.472C661.072 142.128 657.707 144.162 654.589 146.54L680.132 182.134L649.465 150.977C642.993 157.346 638.208 165.231 635.543 173.92C632.877 182.609 632.416 191.826 634.2 200.739C624.936 205.072 617.076 211.93 611.517 220.528C605.957 229.127 602.924 239.119 602.763 249.363C602.602 259.607 605.32 269.69 610.606 278.459C615.893 287.229 623.534 294.331 632.657 298.955C641.78 303.578 652.017 305.536 662.198 304.605C672.38 303.674 682.094 299.892 690.232 293.69C698.369 287.489 704.602 279.118 708.217 269.534C711.833 259.951 712.685 249.542 710.677 239.496C721.763 234.325 730.791 225.567 736.309 214.632C741.827 203.697 743.515 191.219 741.101 179.206Z" fill="#2FB245"/>
<path opacity="0.1" d="M639.021 165.312C633.485 176.242 631.791 188.724 634.215 200.739C624.951 205.072 617.091 211.93 611.532 220.528C605.973 229.127 602.939 239.119 602.778 249.363C602.617 259.607 605.335 269.69 610.622 278.459C615.908 287.229 623.549 294.331 632.672 298.955C641.795 303.578 652.033 305.536 662.214 304.605C672.395 303.674 682.109 299.892 690.247 293.69C698.384 287.489 704.617 279.118 708.232 269.534C711.848 259.951 712.7 249.542 710.692 239.496C721.386 234.52 641.761 159.843 639.021 165.312Z" fill="black"/>
<path d="M700.43 86.2428C704.898 86.2428 708.52 82.6128 708.52 78.1349C708.52 73.6571 704.898 70.0271 700.43 70.0271C695.961 70.0271 692.339 73.6571 692.339 78.1349C692.339 82.6128 695.961 86.2428 700.43 86.2428Z" fill="#2FB245"/>
<path d="M747.685 91.4458C752.154 91.4458 755.776 87.8158 755.776 83.3379C755.776 78.8601 752.154 75.23 747.685 75.23C743.217 75.23 739.595 78.8601 739.595 83.3379C739.595 87.8158 743.217 91.4458 747.685 91.4458Z" fill="#2FB245"/>
<path d="M765.91 164.303C770.378 164.303 774 160.673 774 156.195C774 151.717 770.378 148.087 765.91 148.087C761.441 148.087 757.819 151.717 757.819 156.195C757.819 160.673 761.441 164.303 765.91 164.303Z" fill="#2FB245"/>
<path d="M741.313 200.686C745.781 200.686 749.403 197.056 749.403 192.578C749.403 188.1 745.781 184.47 741.313 184.47C736.845 184.47 733.223 188.1 733.223 192.578C733.223 197.056 736.845 200.686 741.313 200.686Z" fill="#2FB245"/>
<path d="M707.71 276.25C712.178 276.25 715.8 272.62 715.8 268.143C715.8 263.665 712.178 260.035 707.71 260.035C703.242 260.035 699.62 263.665 699.62 268.143C699.62 272.62 703.242 276.25 707.71 276.25Z" fill="#2FB245"/>
<path opacity="0.1" d="M707.71 276.25C712.178 276.25 715.8 272.62 715.8 268.143C715.8 263.665 712.178 260.035 707.71 260.035C703.242 260.035 699.62 263.665 699.62 268.143C699.62 272.62 703.242 276.25 707.71 276.25Z" fill="black"/>
<path d="M632.997 190.667C637.465 190.667 641.087 187.037 641.087 182.559C641.087 178.081 637.465 174.451 632.997 174.451C628.529 174.451 624.906 178.081 624.906 182.559C624.906 187.037 628.529 190.667 632.997 190.667Z" fill="#2FB245"/>
<path opacity="0.1" d="M632.997 190.667C637.465 190.667 641.087 187.037 641.087 182.559C641.087 178.081 637.465 174.451 632.997 174.451C628.529 174.451 624.906 178.081 624.906 182.559C624.906 187.037 628.529 190.667 632.997 190.667Z" fill="black"/>
<path opacity="0.1" d="M624.369 315.918C618.988 313.195 617.361 305.481 620.502 298.367C620.335 298.655 620.176 298.951 620.025 299.262C616.309 306.619 617.845 314.886 623.453 317.73C629.061 320.574 636.622 316.911 640.33 309.554C640.489 309.251 640.625 308.94 640.762 308.636C636.91 315.394 629.742 318.648 624.369 315.918Z" fill="black"/>
<path opacity="0.1" d="M616.377 331.754C611.004 329.031 609.369 321.318 612.517 314.196C612.351 314.492 612.184 314.787 612.033 315.091C608.317 322.448 609.853 330.723 615.461 333.559C621.069 336.396 628.63 332.748 632.346 325.383C632.497 325.08 632.641 324.776 632.777 324.465C628.918 331.223 621.758 334.477 616.377 331.754Z" fill="black"/>
<path opacity="0.1" d="M608.385 347.583C603.012 344.86 601.377 337.147 604.525 330.032C604.359 330.321 604.192 330.616 604.041 330.927C600.325 338.284 601.869 346.551 607.477 349.396C613.085 352.24 620.638 348.577 624.354 341.22C624.505 340.916 624.649 340.605 624.785 340.302C620.933 347.06 613.766 350.313 608.385 347.583Z" fill="black"/>
<path opacity="0.1" d="M600.423 363.457C595.042 360.735 593.415 353.021 596.556 345.907C596.389 346.195 596.231 346.491 596.072 346.794C592.363 354.151 593.899 362.426 599.508 365.27C605.116 368.114 612.676 364.451 616.385 357.086C616.544 356.783 616.68 356.48 616.816 356.169C612.941 362.889 605.774 366.142 600.423 363.457Z" fill="black"/>
<path opacity="0.1" d="M592.409 379.248C587.028 376.526 585.4 368.812 588.541 361.698C588.375 361.986 588.216 362.282 588.064 362.593C584.348 369.95 585.885 378.217 591.493 381.061C597.101 383.905 604.661 380.242 608.377 372.885C608.529 372.582 608.673 372.271 608.809 371.967C604.964 378.725 597.782 381.979 592.409 379.248Z" fill="black"/>
<path opacity="0.1" d="M584.416 395.085C579.043 392.362 577.408 384.649 580.557 377.534C580.39 377.823 580.224 378.118 580.072 378.422C576.356 385.779 577.893 394.053 583.508 396.898C589.124 399.742 596.639 396.071 600.423 388.714C600.575 388.411 600.718 388.107 600.855 387.796C596.957 394.554 589.828 397.808 584.416 395.085Z" fill="black"/>
<path opacity="0.1" d="M576.424 410.914C571.051 408.191 569.416 400.477 572.565 393.363C572.398 393.659 572.239 393.947 572.08 394.258C568.372 401.615 569.908 409.882 575.516 412.726C581.124 415.571 588.685 411.907 592.393 404.55C592.552 404.247 592.689 403.936 592.825 403.633C588.973 410.39 581.805 413.644 576.424 410.914Z" fill="black"/>
<path opacity="0.1" d="M568.44 426.75C563.059 424.027 561.432 416.314 564.573 409.2C564.406 409.488 564.247 409.784 564.096 410.087C560.38 417.444 561.916 425.719 567.524 428.563C573.132 431.407 580.693 427.744 584.409 420.379C584.56 420.076 584.697 419.773 584.833 419.462C580.981 426.219 573.813 429.443 568.44 426.75Z" fill="black"/>
<path opacity="0.1" d="M563.188 437.156C557.814 434.426 556.18 426.72 559.328 419.598C559.161 419.894 558.995 420.19 558.844 420.493C555.128 427.85 556.664 436.125 562.272 438.961C567.88 441.798 575.441 438.15 579.157 430.785C579.308 430.482 579.452 430.178 579.588 429.868C575.728 436.625 568.561 439.879 563.188 437.156Z" fill="black"/>
<path d="M707.581 366.688C708.415 364.292 708.924 361.795 709.095 359.263C709.651 359.262 710.201 359.146 710.71 358.922C711.219 358.698 711.676 358.372 712.053 357.963C712.431 357.553 712.72 357.071 712.903 356.545C713.086 356.019 713.158 355.46 713.116 354.905C713.074 354.35 712.917 353.809 712.657 353.317C712.397 352.824 712.038 352.391 711.603 352.044C711.168 351.697 710.667 351.444 710.13 351.3C709.593 351.156 709.032 351.125 708.482 351.208C707.582 347.103 705.782 343.25 703.211 339.93C700.64 336.609 697.363 333.905 693.618 332.012C694.102 331.052 694.185 329.94 693.85 328.918C693.515 327.897 692.789 327.051 691.832 326.566C690.875 326.081 689.764 325.998 688.745 326.333C687.726 326.669 686.882 327.397 686.398 328.356C686.223 328.697 686.1 329.063 686.035 329.441C681.594 328.612 677.02 328.857 672.693 330.156C668.367 331.456 664.412 333.772 661.158 336.912C658.701 336.513 656.202 336.439 653.726 336.692L650.449 351.641L650.252 337.23C646.491 338.056 642.937 339.643 639.809 341.892C636.68 344.141 634.042 347.006 632.055 350.312C630.069 353.618 628.776 357.295 628.256 361.118C627.735 364.942 627.998 368.831 629.029 372.549C630.06 376.267 631.836 379.736 634.249 382.743C636.663 385.749 639.663 388.231 643.066 390.037C646.469 391.842 650.204 392.933 654.042 393.243C657.88 393.553 661.741 393.075 665.389 391.839C665.779 392.544 666.372 393.115 667.092 393.477C667.833 393.854 668.672 393.993 669.495 393.875C670.317 393.757 671.084 393.388 671.69 392.817C672.295 392.247 672.711 391.503 672.879 390.687C673.048 389.871 672.961 389.023 672.631 388.259C673.922 387.37 675.138 386.376 676.264 385.286C682.173 386.248 688.233 385.312 693.578 382.61C698.922 379.908 703.276 375.58 706.015 370.246L690.765 367.674L707.581 366.688Z" fill="#2FB245"/>
<g opacity="0.1">
<path d="M684.022 373.947C678.391 366.499 674.94 357.678 670.966 349.214C669.371 345.739 667.585 342.357 665.616 339.081L662.634 335.599C662.134 336.024 661.635 336.464 661.12 336.927C658.663 336.528 656.165 336.454 653.688 336.707L650.411 351.656L650.214 337.245C646.453 338.071 642.9 339.658 639.771 341.907C636.642 344.156 634.004 347.021 632.017 350.327C630.031 353.633 628.738 357.31 628.218 361.133C627.697 364.957 627.961 368.846 628.991 372.564C630.022 376.282 631.798 379.751 634.212 382.758C636.625 385.764 639.625 388.246 643.028 390.052C646.431 391.857 650.166 392.948 654.004 393.258C657.842 393.568 661.703 393.09 665.351 391.854C665.741 392.559 666.334 393.13 667.054 393.492C667.795 393.869 668.634 394.008 669.457 393.89C670.28 393.772 671.046 393.403 671.652 392.832C672.258 392.262 672.673 391.518 672.842 390.702C673.01 389.887 672.923 389.039 672.594 388.274C673.885 387.385 675.1 386.391 676.226 385.301C682.011 386.239 687.944 385.359 693.209 382.783C689.694 380.349 686.592 377.366 684.022 373.947Z" fill="black"/>
</g>
<path d="M584.311 341.94C584.623 341.322 584.771 340.634 584.742 339.941C584.713 339.249 584.507 338.576 584.144 337.986C583.781 337.396 583.273 336.91 582.669 336.573C582.065 336.236 581.384 336.06 580.693 336.062C579.546 329.967 576.435 324.417 571.838 320.263C572.579 317.368 572.86 314.373 572.671 311.39L557.799 308.849L572.239 307.939C571.98 306.58 571.623 305.241 571.172 303.934C571.734 303.546 572.192 303.025 572.504 302.417C572.868 301.692 573.007 300.874 572.903 300.069C572.799 299.264 572.456 298.509 571.919 297.902C571.382 297.294 570.675 296.862 569.89 296.661C569.106 296.46 568.279 296.499 567.517 296.774C563.692 291.358 558.096 287.457 551.699 285.747C545.302 284.036 538.51 284.626 532.502 287.414C526.494 290.201 521.651 295.009 518.813 301.004C515.975 306.998 515.323 313.799 516.969 320.226C516.093 320.596 515.379 321.269 514.956 322.122C514.584 322.856 514.445 323.687 514.557 324.502C514.668 325.318 515.026 326.08 515.58 326.687C516.135 327.295 516.862 327.718 517.663 327.901C518.464 328.084 519.301 328.018 520.064 327.711C521.516 330.155 523.324 332.366 525.43 334.272C523.897 340.262 524.359 346.59 526.747 352.293L546.689 347.105L528.904 356.48C532.048 361.487 536.676 365.385 542.14 367.627C547.604 369.87 553.63 370.345 559.376 368.986C565.123 367.627 570.302 364.502 574.189 360.049C578.076 355.595 580.477 350.035 581.056 344.147C581.741 344.088 582.4 343.854 582.97 343.468C583.539 343.081 584.001 342.555 584.311 341.94Z" fill="#2FB245"/>
<path opacity="0.1" d="M584.311 341.94C584.623 341.322 584.771 340.634 584.742 339.941C584.713 339.249 584.507 338.576 584.144 337.986C583.781 337.396 583.273 336.91 582.669 336.573C582.065 336.236 581.384 336.06 580.693 336.062C579.546 329.967 576.435 324.417 571.838 320.264C571.959 319.786 572.065 319.315 572.156 318.838C571.628 319.221 571.139 319.655 570.695 320.135C568.009 323.085 566.631 327.052 563.975 330.032C560.842 333.552 556.149 335.387 551.465 335.88C546.78 336.373 542.065 335.653 537.441 334.75C533.611 333.992 529.729 333.112 525.846 333.483C525.468 333.483 525.089 333.567 524.741 333.627C524.968 333.847 525.195 334.067 525.43 334.28C523.897 340.27 524.36 346.598 526.747 352.301L546.689 347.105L528.904 356.48C532.048 361.487 536.676 365.385 542.14 367.627C547.604 369.87 553.63 370.345 559.376 368.986C565.123 367.627 570.302 364.502 574.189 360.049C578.076 355.595 580.477 350.036 581.056 344.147C581.741 344.088 582.4 343.854 582.97 343.468C583.539 343.081 584.001 342.556 584.311 341.94Z" fill="black"/>
</g>
<g opacity="0.1">
<path d="M67.7279 387.978C68.6966 385.028 72.6245 383.67 76.4994 384.944C77.0567 385.127 77.5963 385.361 78.1114 385.642C78.3612 385.574 78.6185 385.513 78.8682 385.468C78.6556 384.621 78.5739 383.746 78.6261 382.874C77.2959 381.972 76.2175 380.745 75.493 379.309C74.7685 377.873 74.422 376.275 74.4863 374.667C73.1445 373.782 72.0628 372.554 71.353 371.11C70.6134 369.679 70.2661 368.078 70.3465 366.468C69.0056 365.579 67.9243 364.349 67.2132 362.904C65.3514 359.202 66.1083 355.039 68.9463 353.597C71.7844 352.156 75.5837 354.015 77.453 357.716C78.1913 359.15 78.5361 360.754 78.452 362.365C79.7857 363.261 80.867 364.486 81.592 365.922C82.317 367.358 82.6613 368.956 82.5918 370.564C83.9251 371.462 85.0059 372.689 85.7308 374.126C86.4556 375.563 86.8002 377.162 86.7316 378.771C88.0653 379.667 89.1467 380.891 89.8716 382.327C90.5966 383.763 90.9409 385.362 90.8714 386.969C92.2151 387.858 93.299 389.088 94.0122 390.534C94.3525 391.234 94.6067 391.972 94.769 392.734C95.2353 392.046 95.8045 391.435 96.4567 390.921C96.5345 390.336 96.6663 389.76 96.8503 389.199C98.1293 385.316 101.543 382.95 104.487 383.89C107.431 384.831 108.778 388.797 107.514 392.681C106.992 394.348 105.988 395.823 104.63 396.92C104.552 397.503 104.42 398.076 104.237 398.634C103.616 400.693 102.232 402.435 100.37 403.504C100.516 404 100.622 404.507 100.687 405.021C101.469 405.772 102.116 406.652 102.602 407.622C103.097 408.59 103.42 409.637 103.556 410.717C104.34 411.467 104.99 412.347 105.478 413.318C105.972 414.286 106.295 415.334 106.432 416.413C107.218 417.165 107.868 418.047 108.354 419.022C110.223 422.723 109.451 426.894 106.628 428.32C103.805 429.746 99.9911 427.911 98.1218 424.202C97.6289 423.233 97.3063 422.186 97.1681 421.107C95.5913 419.592 94.577 417.582 94.2922 415.411C92.7154 413.896 91.7011 411.886 91.4163 409.715C90.6326 408.964 89.9825 408.084 89.494 407.114C89.0045 406.144 88.6821 405.097 88.5404 404.019C87.759 403.268 87.1115 402.388 86.6257 401.418C86.1305 400.45 85.8078 399.403 85.6721 398.323C85.1848 397.868 84.7506 397.36 84.3779 396.807C82.8208 397.126 81.2071 397.026 79.7008 396.518C79.1413 396.331 78.5993 396.095 78.0812 395.813C76.3979 396.261 74.6198 396.198 72.9726 395.631C69.1355 394.349 66.7667 390.929 67.7279 387.978Z" fill="#3F3D56"/>
<g opacity="0.1">
<path d="M74.562 376.351C74.9632 376.747 75.4045 377.101 75.8788 377.405C75.8147 378.494 75.9586 379.586 76.3026 380.621C75.9985 380.207 75.7302 379.768 75.5004 379.309C75.0271 378.382 74.71 377.382 74.562 376.351Z" fill="black"/>
<path d="M70.4221 368.16C70.8254 368.551 71.2665 368.902 71.739 369.206C71.6754 370.298 71.8192 371.392 72.1628 372.43C71.2461 371.169 70.6487 369.703 70.4221 368.16Z" fill="black"/>
<path d="M79.8293 365.103C79.8653 364.541 79.8451 363.977 79.7688 363.419C80.5087 364.152 81.1247 364.999 81.5927 365.93C81.8212 366.389 82.0135 366.866 82.1679 367.356C81.5372 366.464 80.7437 365.699 79.8293 365.103Z" fill="black"/>
<path d="M106.091 414.751C105.76 414.286 105.385 413.855 104.971 413.462C104.902 412.948 104.79 412.441 104.638 411.945C104.966 412.391 105.258 412.862 105.508 413.356C105.738 413.805 105.933 414.272 106.091 414.751Z" fill="black"/>
<path d="M103.192 409.055C102.862 408.59 102.486 408.159 102.072 407.766C102.011 407.252 101.904 406.745 101.755 406.249C102.378 407.095 102.859 408.038 103.177 409.04L103.192 409.055Z" fill="black"/>
<path d="M78.7093 384.573C79.1066 384.966 79.5456 385.314 80.0186 385.612C79.962 386.484 80.0438 387.359 80.2608 388.206C80.0057 388.251 79.7531 388.309 79.504 388.38C78.9856 388.1 78.4436 387.867 77.8844 387.682C74.0094 386.408 70.0815 387.766 69.1204 390.716C68.8795 391.45 68.8351 392.235 68.9917 392.992C68.3691 392.335 67.9262 391.529 67.7061 390.65C67.486 389.772 67.4961 388.851 67.7354 387.978C68.7041 385.028 72.632 383.67 76.507 384.944C77.0643 385.127 77.6039 385.361 78.119 385.642C78.3687 385.574 78.626 385.513 78.8758 385.468C78.803 385.173 78.7474 384.874 78.7093 384.573Z" fill="black"/>
<path d="M107.514 417.611C107.844 418.058 108.135 418.532 108.384 419.029C108.615 419.489 108.81 419.965 108.967 420.455C108.636 419.988 108.261 419.553 107.847 419.158C107.779 418.634 107.668 418.116 107.514 417.611Z" fill="black"/>
<path d="M83.9692 373.317C84.0054 372.755 83.9851 372.191 83.9087 371.633C84.6503 372.364 85.2666 373.212 85.7326 374.144C85.9611 374.601 86.1534 375.075 86.3078 375.562C85.6769 374.672 84.8834 373.911 83.9692 373.317Z" fill="black"/>
<path d="M89.9557 406.765C90.0265 407.332 90.1507 407.89 90.3265 408.434C89.6958 407.567 89.2149 406.6 88.9037 405.574C89.2181 406.002 89.5702 406.4 89.9557 406.765Z" fill="black"/>
<path d="M95.6999 418.157C95.7763 418.723 95.9029 419.282 96.0783 419.826C95.7742 419.412 95.5058 418.973 95.2761 418.513C95.0272 418.026 94.8196 417.519 94.6555 416.997C94.9725 417.41 95.3217 417.798 95.6999 418.157Z" fill="black"/>
<path d="M92.8315 412.461C92.9024 413.028 93.0265 413.586 93.2024 414.13C92.9009 413.714 92.6327 413.275 92.4001 412.817C92.1503 412.331 91.9427 411.823 91.7795 411.301C92.0954 411.718 92.4474 412.106 92.8315 412.461Z" fill="black"/>
<path d="M87.0797 401.061C87.1497 401.631 87.2739 402.192 87.4505 402.738C87.1636 402.321 86.9105 401.882 86.6937 401.425C86.44 400.939 86.2298 400.432 86.0656 399.909C86.3679 400.323 86.7074 400.709 87.0797 401.061Z" fill="black"/>
<path d="M105.902 386.658C102.958 385.688 99.5446 388.054 98.2731 391.968C98.0891 392.528 97.9574 393.104 97.8796 393.689C97.225 394.2 96.6532 394.809 96.1843 395.494C96.0086 394.732 95.7418 393.993 95.3896 393.295C95.261 393.037 95.1172 392.787 94.9658 392.536C95.3954 391.939 95.9047 391.403 96.4795 390.944C96.5572 390.359 96.689 389.782 96.873 389.222C98.152 385.339 101.565 382.972 104.509 383.913C105.354 384.238 106.1 384.776 106.675 385.475C107.251 386.174 107.636 387.01 107.794 387.902C107.28 387.333 106.628 386.904 105.902 386.658Z" fill="black"/>
<path d="M92.2488 389.715C92.2848 389.153 92.2645 388.589 92.1882 388.031C92.9299 388.762 93.5461 389.61 94.0122 390.542C94.2406 391.001 94.433 391.478 94.5874 391.968C93.9586 391.074 93.1648 390.309 92.2488 389.715Z" fill="black"/>
<path d="M88.109 381.509C88.1449 380.947 88.1246 380.383 88.0485 379.825C88.7866 380.558 89.4024 381.406 89.8724 382.335C90.1009 382.795 90.2932 383.272 90.4476 383.761C89.8169 382.869 89.0234 382.105 88.109 381.509Z" fill="black"/>
<path d="M98.5758 423.853C98.6484 424.422 98.7751 424.984 98.9542 425.529C98.6517 425.112 98.3834 424.67 98.152 424.209C97.903 423.722 97.6955 423.215 97.5314 422.693C97.8483 423.106 98.1976 423.494 98.5758 423.853Z" fill="black"/>
</g>
<path d="M62.0744 350.063C60.7326 349.178 59.651 347.95 58.9412 346.506C57.0718 342.797 57.8438 338.633 60.6667 337.2C63.4897 335.766 67.304 337.609 69.1734 341.318C69.9128 342.749 70.2577 344.351 70.1724 345.96C71.5057 346.858 72.5865 348.085 73.3114 349.521C74.0362 350.958 74.3808 352.558 74.3122 354.166C75.6549 355.053 76.7387 356.28 77.453 357.723C77.6801 358.178 77.8724 358.65 78.0282 359.134C77.0257 357.7 75.5823 356.635 73.9187 356.1C73.7333 356.693 73.432 357.242 73.0324 357.717C72.6327 358.191 72.1427 358.581 71.591 358.864C71.0392 359.146 70.4369 359.315 69.819 359.362C69.2012 359.408 68.5804 359.331 67.9928 359.134C67.4316 360.794 67.4316 362.594 67.9928 364.254C67.7084 363.841 67.4554 363.408 67.2359 362.957C66.4963 361.526 66.149 359.924 66.2294 358.315C64.8976 357.415 63.818 356.188 63.0934 354.752C62.3687 353.315 62.0231 351.717 62.0896 350.109L62.0744 350.063Z" fill="#3F3D56"/>
<path d="M16.5744 297.472C15.4264 296.934 14.3163 296.318 13.2519 295.629L25.573 286.603L11.0874 294.074C8.15863 291.74 5.73585 288.832 3.96735 285.527C2.19886 282.223 1.12185 278.591 0.802245 274.855L25.4292 275.113L0.749268 270.972C0.961771 267.198 1.94733 263.51 3.64453 260.135C5.34173 256.76 7.71422 253.772 10.6142 251.356C13.5141 248.94 16.8794 247.149 20.5004 246.094C24.1213 245.038 27.9204 244.741 31.6608 245.221C35.4012 245.702 39.0029 246.949 42.2414 248.885C45.4799 250.821 48.2859 253.405 50.4845 256.475C52.6832 259.545 54.2273 263.037 55.0208 266.731C55.8142 270.426 55.84 274.244 55.0965 277.949C56.8842 278.778 58.5789 279.795 60.1521 280.983L47.2861 298.913L62.7328 283.228C65.9924 286.437 68.4024 290.409 69.7449 294.786C71.0875 299.162 71.3202 303.806 70.4221 308.295C75.0948 310.476 79.0607 313.931 81.8663 318.265C84.6719 322.598 86.2038 327.636 86.2871 332.801C86.3703 337.966 85.0014 343.051 82.3369 347.473C79.6725 351.895 75.8199 355.477 71.22 357.808C66.62 360.139 61.4582 361.126 56.3249 360.655C51.1916 360.185 46.294 358.276 42.1921 355.148C38.0903 352.019 34.9497 347.797 33.1297 342.964C31.3096 338.131 30.8835 332.882 31.9 327.818C26.3229 325.213 21.7805 320.806 19.0014 315.305C16.2223 309.803 15.3676 303.526 16.5744 297.48V297.472Z" fill="#2FB245"/>
<path opacity="0.1" d="M68.0003 290.479C70.7915 295.984 71.6449 302.273 70.4221 308.325C75.0948 310.507 79.0607 313.962 81.8662 318.295C84.6718 322.629 86.2038 327.666 86.287 332.831C86.3703 337.997 85.0014 343.081 82.3369 347.503C79.6724 351.925 75.8199 355.507 71.2199 357.838C66.6199 360.169 61.4582 361.156 56.3248 360.686C51.1915 360.215 46.2939 358.307 42.1921 355.178C38.0902 352.05 34.9497 347.827 33.1296 342.994C31.3095 338.161 30.8834 332.912 31.8999 327.848C26.5038 325.338 66.6153 287.726 68.0003 290.479Z" fill="black"/>
<path d="M37.0615 250.645C39.3144 250.645 41.1408 248.815 41.1408 246.557C41.1408 244.299 39.3144 242.469 37.0615 242.469C34.8086 242.469 32.9822 244.299 32.9822 246.557C32.9822 248.815 34.8086 250.645 37.0615 250.645Z" fill="#2FB245"/>
<path d="M13.2519 253.269C15.5048 253.269 17.3312 251.439 17.3312 249.181C17.3312 246.923 15.5048 245.093 13.2519 245.093C10.999 245.093 9.17267 246.923 9.17267 249.181C9.17267 251.439 10.999 253.269 13.2519 253.269Z" fill="#2FB245"/>
<path d="M4.07926 289.971C6.33217 289.971 8.15852 288.141 8.15852 285.883C8.15852 283.625 6.33217 281.795 4.07926 281.795C1.82635 281.795 0 283.625 0 285.883C0 288.141 1.82635 289.971 4.07926 289.971Z" fill="#2FB245"/>
<path d="M16.4684 308.303C18.7213 308.303 20.5477 306.472 20.5477 304.215C20.5477 301.957 18.7213 300.127 16.4684 300.127C14.2155 300.127 12.3892 301.957 12.3892 304.215C12.3892 306.472 14.2155 308.303 16.4684 308.303Z" fill="#2FB245"/>
<path d="M33.3909 346.369C35.6438 346.369 37.4702 344.539 37.4702 342.281C37.4702 340.024 35.6438 338.193 33.3909 338.193C31.138 338.193 29.3116 340.024 29.3116 342.281C29.3116 344.539 31.138 346.369 33.3909 346.369Z" fill="#2FB245"/>
<path opacity="0.1" d="M33.3909 346.369C35.6438 346.369 37.4702 344.539 37.4702 342.281C37.4702 340.024 35.6438 338.193 33.3909 338.193C31.138 338.193 29.3116 340.024 29.3116 342.281C29.3116 344.539 31.138 346.369 33.3909 346.369Z" fill="black"/>
<path d="M71.0276 303.251C73.2805 303.251 75.1068 301.421 75.1068 299.163C75.1068 296.906 73.2805 295.075 71.0276 295.075C68.7747 295.075 66.9483 296.906 66.9483 299.163C66.9483 301.421 68.7747 303.251 71.0276 303.251Z" fill="#2FB245"/>
<path opacity="0.1" d="M71.0276 303.251C73.2805 303.251 75.1068 301.421 75.1068 299.163C75.1068 296.906 73.2805 295.075 71.0276 295.075C68.7747 295.075 66.9483 296.906 66.9483 299.163C66.9483 301.421 68.7747 303.251 71.0276 303.251Z" fill="black"/>
<path opacity="0.1" d="M75.3793 366.347C78.0887 364.974 78.9061 361.091 77.3243 357.504C77.4076 357.655 77.4908 357.799 77.5665 357.951C79.4358 361.66 78.6639 365.824 75.8334 367.257C73.0029 368.691 69.2036 366.848 67.3343 363.139C67.2586 362.987 67.1829 362.835 67.1148 362.676C69.0598 366.082 72.6699 367.72 75.3793 366.347Z" fill="black"/>
<path opacity="0.1" d="M79.398 374.326C82.1074 372.953 82.9324 369.062 81.3506 365.482C81.4339 365.627 81.5171 365.778 81.5928 365.93C83.4622 369.639 82.6902 373.803 79.8597 375.236C77.0292 376.67 73.2299 374.827 71.3606 371.118C71.2773 370.966 71.2092 370.807 71.1411 370.655C73.0861 374.076 76.7037 375.699 79.398 374.326Z" fill="black"/>
<path opacity="0.1" d="M83.4243 382.297C86.1337 380.925 86.9586 377.041 85.3693 373.454C85.4601 373.605 85.5358 373.75 85.619 373.909C87.4884 377.61 86.7089 381.782 83.8859 383.207C81.063 384.633 77.2562 382.798 75.3868 379.089C75.3036 378.937 75.2355 378.786 75.1674 378.626C77.1048 382.032 80.7149 383.67 83.4243 382.297Z" fill="black"/>
<path opacity="0.1" d="M87.4505 390.276C90.1599 388.903 90.9849 385.02 89.3955 381.433C89.4788 381.577 89.562 381.729 89.6377 381.88C91.5146 385.589 90.7351 389.753 87.9122 391.186C85.0892 392.62 81.2749 390.777 79.4055 387.068C79.3298 386.916 79.2617 386.757 79.1936 386.605C81.1311 390.003 84.7411 391.649 87.4505 390.276Z" fill="black"/>
<path opacity="0.1" d="M91.4769 398.248C94.1863 396.875 95.0037 392.992 93.4219 389.412C93.5051 389.556 93.5884 389.707 93.6641 389.859C95.5334 393.568 94.7615 397.732 91.9385 399.165C89.1156 400.599 85.3012 398.748 83.4319 395.047C83.3562 394.888 83.2881 394.736 83.2124 394.584C85.1574 397.982 88.7675 399.62 91.4769 398.248Z" fill="black"/>
<path opacity="0.1" d="M95.5031 406.227C98.2125 404.854 99.0299 400.97 97.4482 397.383C97.5314 397.535 97.6147 397.679 97.6903 397.83C99.5597 401.539 98.7877 405.703 95.9648 407.137C93.1418 408.57 89.3275 406.727 87.4581 403.018C87.3824 402.867 87.3068 402.715 87.2386 402.556C89.1837 405.931 92.7937 407.599 95.5031 406.227Z" fill="black"/>
<path opacity="0.1" d="M99.5294 414.205C102.231 412.833 103.056 408.942 101.474 405.362C101.558 405.506 101.641 405.658 101.717 405.809C103.586 409.518 102.814 413.682 99.9835 415.116C97.1529 416.549 93.3537 414.698 91.4844 410.997C91.4087 410.838 91.333 410.686 91.2649 410.535C93.2099 413.932 96.82 415.578 99.5294 414.205Z" fill="black"/>
<path opacity="0.1" d="M103.548 422.177C106.258 420.804 107.083 416.921 105.493 413.333C105.584 413.485 105.66 413.629 105.743 413.788C107.612 417.49 106.833 421.661 104.01 423.087C101.187 424.513 97.3801 422.677 95.5107 418.969C95.4275 418.817 95.3594 418.665 95.2913 418.506C97.2363 421.911 100.839 423.55 103.548 422.177Z" fill="black"/>
<path opacity="0.1" d="M106.22 427.418C108.929 426.045 109.746 422.162 108.165 418.574C108.248 418.726 108.331 418.87 108.407 419.029C110.276 422.73 109.504 426.902 106.681 428.328C103.858 429.754 100.044 427.918 98.1747 424.209C98.099 424.058 98.0233 423.906 97.9552 423.747C99.8775 427.167 103.488 428.79 106.22 427.418Z" fill="black"/>
<path d="M33.459 391.922C33.0387 390.716 32.7841 389.458 32.7022 388.183C32.4223 388.182 32.1457 388.123 31.8895 388.01C31.6334 387.897 31.4032 387.733 31.2134 387.527C31.0236 387.32 30.8782 387.077 30.7863 386.812C30.6945 386.547 30.6581 386.266 30.6795 385.987C30.7009 385.707 30.7795 385.435 30.9106 385.187C31.0417 384.939 31.2223 384.721 31.4413 384.547C31.6602 384.372 31.9127 384.244 32.1831 384.172C32.4534 384.099 32.7358 384.083 33.0125 384.125C33.4666 382.058 34.3738 380.118 35.6683 378.445C36.9629 376.773 38.6124 375.41 40.4974 374.455C40.2536 373.971 40.2114 373.41 40.3803 372.895C40.5492 372.38 40.9153 371.954 41.3981 371.709C41.8808 371.465 42.4406 371.423 42.9544 371.592C43.4682 371.761 43.8939 372.128 44.1377 372.612C44.2263 372.783 44.2876 372.968 44.3194 373.158C46.5588 372.746 48.864 372.875 51.0436 373.535C53.2233 374.194 55.2146 375.365 56.8523 376.95C58.1032 376.745 59.376 376.709 60.6364 376.844L62.2863 384.368L62.3241 377.109C64.2006 377.544 65.9699 378.355 67.5252 379.494C69.0805 380.632 70.3897 382.074 71.3739 383.733C72.3581 385.392 72.9968 387.234 73.2517 389.147C73.5065 391.06 73.3721 393.006 72.8567 394.865C72.3412 396.725 71.4554 398.461 70.2525 399.968C69.0496 401.476 67.5546 402.723 65.8575 403.636C64.1605 404.549 62.2967 405.108 60.3783 405.279C58.4599 405.451 56.5268 405.231 54.6954 404.634C54.4962 404.986 54.1991 405.274 53.8402 405.46C53.4661 405.65 53.043 405.719 52.6283 405.659C52.2136 405.599 51.8272 405.413 51.5216 405.126C51.2159 404.839 51.0058 404.464 50.9197 404.053C50.8335 403.642 50.8755 403.215 51.0399 402.829C50.391 402.375 49.7809 401.867 49.216 401.312C46.2391 401.795 43.1859 401.322 40.494 399.959C37.8021 398.597 35.6097 396.415 34.231 393.727L41.9127 392.43L33.459 391.922Z" fill="#2FB245"/>
<g opacity="0.1">
<path d="M45.326 395.578C48.164 391.786 49.9047 387.387 51.9027 383.124C52.7028 381.37 53.6024 379.663 54.597 378.012L56.1106 376.26C56.368 376.48 56.6177 376.7 56.8675 376.928C58.1184 376.722 59.3911 376.687 60.6516 376.821L62.3014 384.345L62.3241 377.11C64.2006 377.544 65.9699 378.355 67.5252 379.494C69.0805 380.632 70.3897 382.074 71.3739 383.733C72.3581 385.393 72.9968 387.234 73.2517 389.147C73.5065 391.061 73.3721 393.006 72.8567 394.865C72.3412 396.725 71.4554 398.461 70.2525 399.968C69.0496 401.476 67.5546 402.723 65.8576 403.636C64.1605 404.549 62.2967 405.108 60.3783 405.279C58.4599 405.451 56.5268 405.231 54.6954 404.634C54.4962 404.987 54.1991 405.274 53.8402 405.461C53.4661 405.65 53.0431 405.719 52.6283 405.659C52.2136 405.599 51.8272 405.413 51.5216 405.126C51.2159 404.839 51.0058 404.464 50.9197 404.053C50.8335 403.642 50.8755 403.215 51.0399 402.829C50.391 402.375 49.7809 401.867 49.216 401.312C46.3007 401.78 43.3122 401.338 40.6564 400.045C42.4426 398.818 44.0195 397.309 45.326 395.578Z" fill="black"/>
</g>
<path d="M95.5561 379.453C95.4351 379.214 95.3623 378.954 95.3421 378.687C95.3219 378.419 95.3546 378.151 95.4383 377.896C95.522 377.642 95.655 377.407 95.8298 377.204C96.0046 377.001 96.2177 376.835 96.4567 376.715C96.7424 376.569 97.0591 376.493 97.3801 376.495C97.9574 373.424 99.5232 370.626 101.838 368.531C101.463 367.074 101.323 365.566 101.421 364.064L108.906 362.805L101.633 362.342C101.765 361.657 101.947 360.983 102.178 360.325C101.892 360.134 101.661 359.873 101.505 359.567C101.323 359.201 101.254 358.79 101.307 358.385C101.36 357.98 101.533 357.6 101.803 357.294C102.073 356.989 102.428 356.771 102.823 356.669C103.217 356.567 103.633 356.586 104.017 356.722C105.354 354.817 107.14 353.271 109.217 352.225C111.663 350.981 114.414 350.47 117.143 350.754C119.871 351.038 122.459 352.105 124.597 353.826C126.736 355.547 128.334 357.85 129.199 360.458C130.065 363.067 130.161 365.87 129.477 368.531C129.833 368.684 130.137 368.935 130.356 369.256C130.574 369.576 130.697 369.952 130.71 370.34C130.722 370.727 130.624 371.111 130.428 371.445C130.231 371.778 129.943 372.049 129.598 372.225C129.339 372.356 129.056 372.431 128.766 372.444C128.476 372.457 128.187 372.408 127.918 372.301C127.187 373.528 126.277 374.638 125.216 375.593C125.992 378.617 125.76 381.813 124.557 384.694L114.545 382.055L123.498 386.78C122.154 388.929 120.263 390.682 118.02 391.858C115.777 393.034 113.263 393.592 110.734 393.473C108.205 393.354 105.754 392.563 103.631 391.182C101.507 389.801 99.789 387.878 98.6515 385.612C97.8596 384.034 97.362 382.325 97.1833 380.568C96.8396 380.537 96.5097 380.418 96.2249 380.223C95.94 380.028 95.7098 379.763 95.5561 379.453Z" fill="#2FB245"/>
<path opacity="0.1" d="M95.5561 379.453C95.4351 379.214 95.3623 378.954 95.3421 378.687C95.3219 378.419 95.3546 378.151 95.4383 377.896C95.522 377.642 95.655 377.407 95.8298 377.204C96.0046 377.001 96.2177 376.835 96.4567 376.715C96.7424 376.569 97.0591 376.493 97.3801 376.495C97.9574 373.424 99.5232 370.626 101.838 368.531C101.777 368.296 101.724 368.054 101.679 367.818C101.95 368.012 102.204 368.231 102.436 368.471C103.79 369.988 104.487 371.952 105.819 373.454C107.488 375.179 109.731 376.229 112.123 376.404C114.492 376.568 116.872 376.376 119.184 375.835C121.091 375.343 123.058 375.126 125.027 375.191L125.587 375.266L125.239 375.593C126.014 378.617 125.783 381.813 124.58 384.694L114.545 382.055L123.498 386.78C122.154 388.929 120.263 390.682 118.02 391.858C115.777 393.034 113.263 393.592 110.734 393.473C108.205 393.354 105.754 392.563 103.631 391.182C101.507 389.801 99.789 387.878 98.6515 385.612C97.8596 384.034 97.362 382.325 97.1833 380.568C96.8396 380.537 96.5097 380.418 96.2249 380.223C95.94 380.028 95.7098 379.763 95.5561 379.453Z" fill="black"/>
</g>
<path opacity="0.1" d="M262.125 39.5979C259.133 39.0287 256.039 39.3667 253.24 40.5688C251.56 41.3187 249.742 41.7063 247.904 41.7063C246.066 41.7063 244.248 41.3187 242.568 40.5688C240.584 39.6969 238.434 39.2677 236.267 39.3109C234.1 39.3541 231.969 39.8687 230.02 40.819C228.908 41.4081 227.669 41.7178 226.41 41.7216C221.324 41.7216 217.094 36.5869 216.216 29.8139C217.23 29.069 218.093 28.1371 218.759 27.0683C221.741 22.2521 226.327 19.1576 231.542 19.1576C236.756 19.1576 241.297 22.1914 244.279 26.9773C245.17 28.4145 246.415 29.5978 247.894 30.4134C249.373 31.229 251.037 31.6494 252.725 31.6342H252.861C256.872 31.6114 260.376 34.8652 262.125 39.5979Z" fill="#2FB245"/>
<path opacity="0.1" d="M277.579 18.3612L269.36 23.587L274.347 14.4855C272.933 13.3561 271.183 12.7316 269.375 12.7108H269.246C268.676 12.7178 268.106 12.6746 267.543 12.5818L264.751 14.3566L265.947 12.1798C263.979 11.4935 262.274 10.2072 261.073 8.50135L256.07 11.6338L259.218 5.89227C256.305 2.38063 252.369 0.226624 248.048 0.226624C242.864 0.226624 238.209 3.32111 235.258 8.13729C234.374 9.57585 233.127 10.7546 231.642 11.5539C230.158 12.3531 228.488 12.7444 226.804 12.688H226.554C220.833 12.688 216.186 19.188 216.186 27.22C216.186 35.252 220.833 41.7444 226.554 41.7444C227.813 41.7405 229.051 41.4308 230.164 40.8418C232.113 39.8907 234.245 39.3763 236.411 39.3343C238.578 39.2924 240.729 39.724 242.712 40.5991C244.392 41.3467 246.21 41.733 248.048 41.733C249.886 41.733 251.704 41.3467 253.383 40.5991C255.352 39.7426 257.481 39.3209 259.627 39.3628C261.773 39.4047 263.884 39.9091 265.818 40.8418C266.922 41.4151 268.147 41.7166 269.39 41.7216C275.119 41.7216 279.759 35.2217 279.759 27.1972C279.779 24.1158 279.029 21.0783 277.579 18.3612Z" fill="#2FB245"/>
<path opacity="0.1" d="M91.0833 144.674C86.8096 143.864 82.3921 144.344 78.3914 146.054C75.9905 147.121 73.3924 147.669 70.7662 147.662C68.14 147.656 65.5446 147.095 63.1491 146.016C60.3145 144.771 57.2436 144.158 54.1492 144.219C51.0547 144.281 48.0106 145.016 45.2276 146.373C43.6359 147.213 41.8651 147.656 40.066 147.662C32.8006 147.662 26.7536 140.328 25.4973 130.65C26.9491 129.59 28.1826 128.259 29.13 126.729C33.3909 119.85 39.9904 115.428 47.3996 115.428C54.8089 115.428 61.3251 119.797 65.5633 126.6C66.837 128.662 68.6218 130.358 70.7438 131.524C72.8658 132.69 75.2528 133.285 77.6724 133.252H77.8616C83.5983 133.244 88.6085 137.893 91.0833 144.674Z" fill="#2FB245"/>
<path opacity="0.1" d="M113.182 114.298L101.437 121.761L108.566 108.769C106.545 107.153 104.044 106.258 101.459 106.228H101.27C100.454 106.24 99.6384 106.179 98.8331 106.046L94.8674 108.617L96.5778 105.507C93.7556 104.519 91.3182 102.661 89.6151 100.198L82.4858 104.749L86.9738 96.4819C82.8037 91.4685 77.1881 88.3968 71.0124 88.3968C63.6031 88.3968 57.0037 92.811 52.7428 99.6902C51.4808 101.754 49.6951 103.446 47.5679 104.594C45.4407 105.741 43.0479 106.302 40.6337 106.22H40.2325C32.0513 106.22 25.4216 115.511 25.4216 126.979C25.4216 138.447 32.0513 147.738 40.2325 147.738C42.0327 147.733 43.8046 147.288 45.3941 146.441C48.1776 145.085 51.2221 144.352 54.3165 144.291C57.411 144.231 60.4815 144.846 63.3156 146.092C65.7111 147.171 68.3065 147.732 70.9327 147.738C73.5589 147.745 76.157 147.197 78.5579 146.13C81.371 144.907 84.4139 144.304 87.4801 144.363C90.5462 144.422 93.5638 145.141 96.328 146.472C97.9025 147.297 99.652 147.732 101.429 147.738C109.61 147.738 116.24 138.44 116.24 126.979C116.297 122.562 115.246 118.202 113.182 114.298Z" fill="#2FB245"/>
<path opacity="0.1" d="M566.079 69.1776C569.071 68.6089 572.164 68.9469 574.964 70.1484C576.642 70.8987 578.458 71.2864 580.296 71.2864C582.133 71.2864 583.95 70.8987 585.628 70.1484C587.612 69.2765 589.762 68.8473 591.929 68.8906C594.096 68.9338 596.227 69.4484 598.176 70.3987C599.289 70.9869 600.527 71.2965 601.786 71.3013C606.871 71.3013 611.11 66.1665 611.988 59.3936C610.972 58.6506 610.108 57.7184 609.445 56.648C606.478 51.8166 601.839 48.6994 596.639 48.6994C591.44 48.6994 586.891 51.7332 583.91 56.519C583.02 57.9627 581.774 59.1519 580.292 59.9717C578.81 60.7915 577.141 61.2141 575.448 61.1987H575.32C571.293 61.1911 567.782 64.4449 566.079 69.1776Z" fill="#2FB245"/>
<path opacity="0.1" d="M550.579 47.9409L558.798 53.1515L553.803 44.05C555.218 42.9216 556.967 42.2972 558.776 42.2753H558.912C559.482 42.2818 560.052 42.2387 560.615 42.1463L563.4 43.9211L562.204 41.7443C564.186 41.0695 565.907 39.7881 567.123 38.081L572.111 41.2513L568.955 35.5099C571.876 31.9982 575.766 29.8442 580.133 29.8442C585.317 29.8442 589.972 32.9387 592.923 37.7549C593.806 39.194 595.053 40.3732 596.538 41.1725C598.023 41.9718 599.692 42.3628 601.377 42.3056H601.649C607.379 42.3056 612.018 48.8055 612.018 56.8375C612.018 64.8696 607.379 71.3619 601.649 71.3619C600.391 71.3563 599.153 71.0467 598.039 70.4594C596.091 69.5082 593.959 68.9938 591.792 68.9519C589.625 68.91 587.475 69.3416 585.491 70.2167C583.813 70.9641 581.996 71.3503 580.159 71.3503C578.323 71.3503 576.506 70.9641 574.828 70.2167C572.858 69.36 570.727 68.9383 568.58 68.9802C566.433 69.0221 564.321 69.5266 562.386 70.4594C561.282 71.0335 560.057 71.3351 558.813 71.3392C553.092 71.3392 548.445 64.8392 548.445 56.8148C548.405 53.7245 549.138 50.6734 550.579 47.9409Z" fill="#2FB245"/>
<path opacity="0.1" d="M465.921 589.454C513.989 589.454 552.956 582.662 552.956 574.285C552.956 565.907 513.989 559.116 465.921 559.116C417.854 559.116 378.887 565.907 378.887 574.285C378.887 582.662 417.854 589.454 465.921 589.454Z" fill="#2FB245"/>
<path d="M420.368 502.232L285.51 500.495L285.912 497.029L292.428 439.849H410.863L419.574 497.029L420.24 501.367L420.368 502.232Z" fill="#D0D2D5"/>
<path opacity="0.1" d="M420.24 501.367H352.943L285.51 500.495L285.912 497.029H419.574L420.24 501.367Z" fill="black"/>
<path d="M441.983 497.901H263.033V502.232H441.983V497.901Z" fill="#D0D2D5"/>
<path d="M612.714 96.4212C612.724 93.4327 611.55 90.5623 609.45 88.4406C607.35 86.3188 604.495 85.1192 601.513 85.1051H101.77C100.292 85.1121 98.8297 85.4107 97.467 85.9839C96.1043 86.5571 94.8675 87.3937 93.8274 88.4459C92.7873 89.4981 91.9642 90.7453 91.4051 92.1163C90.8459 93.4874 90.5618 94.9553 90.5687 96.4364V400.007H612.714V96.4212Z" fill="#3F3D56"/>
<path d="M90.5687 396.973V432.53C90.5687 435.507 91.7488 438.362 93.8494 440.467C95.95 442.572 98.799 443.755 101.77 443.755H601.513C604.484 443.755 607.333 442.572 609.433 440.467C611.534 438.362 612.714 435.507 612.714 432.53V396.973H90.5687Z" fill="#D0D2D5"/>
<path d="M593.695 104.142H112.183V377.041H593.695V104.142Z" fill="white"/>
<path d="M354.237 430.262C356.005 430.264 357.751 429.863 359.341 429.089C360.932 428.315 362.326 427.188 363.418 425.795C363.749 425.37 364.053 424.924 364.326 424.46L357.915 423.375L364.84 423.421C365.504 421.973 365.866 420.405 365.904 418.813C365.942 417.221 365.654 415.637 365.06 414.16L355.774 418.984L364.341 412.673C363.536 411.287 362.456 410.082 361.167 409.132C359.878 408.182 358.408 407.508 356.848 407.152C355.288 406.795 353.671 406.764 352.099 407.06C350.526 407.356 349.031 407.973 347.707 408.873C346.382 409.772 345.256 410.935 344.399 412.289C343.542 413.643 342.972 415.159 342.724 416.743C342.476 418.327 342.556 419.946 342.959 421.498C343.362 423.049 344.078 424.502 345.065 425.764C346.153 427.163 347.544 428.294 349.133 429.073C350.723 429.853 352.468 430.259 354.237 430.262Z" fill="#2FB245"/>
<path opacity="0.1" d="M365.907 443.747L419.71 497.901L411.453 443.747H365.907Z" fill="black"/>
<path opacity="0.1" d="M593.839 104.173H111.805V120.115H593.839V104.173Z" fill="#444053"/>
<path opacity="0.3" d="M423.963 106.949H279.607C279.365 106.949 279.168 107.145 279.168 107.388V116.209C279.168 116.452 279.365 116.649 279.607 116.649H423.963C424.205 116.649 424.402 116.452 424.402 116.209V107.388C424.402 107.145 424.205 106.949 423.963 106.949Z" fill="#2FB245"/>
<path d="M420.088 112.804H419.732L419.604 112.69C420.044 112.16 420.285 111.491 420.285 110.802C420.28 110.235 420.109 109.683 419.791 109.214C419.474 108.746 419.025 108.382 418.502 108.168C417.978 107.955 417.403 107.902 416.85 108.016C416.296 108.13 415.788 108.405 415.391 108.808C414.993 109.21 414.724 109.722 414.616 110.278C414.508 110.834 414.567 111.409 414.786 111.932C415.004 112.454 415.372 112.9 415.843 113.213C416.314 113.526 416.867 113.693 417.432 113.691C418.121 113.689 418.788 113.445 419.316 113.001L419.445 113.115V113.471L421.662 115.694L422.321 115.026L420.088 112.804ZM417.432 112.804C417.036 112.805 416.649 112.689 416.32 112.47C415.99 112.251 415.733 111.939 415.58 111.573C415.428 111.207 415.387 110.804 415.464 110.416C415.54 110.027 415.73 109.669 416.009 109.388C416.288 109.108 416.644 108.916 417.032 108.838C417.419 108.76 417.821 108.8 418.187 108.951C418.553 109.102 418.865 109.359 419.085 109.688C419.305 110.018 419.422 110.405 419.422 110.802C419.424 111.064 419.374 111.325 419.275 111.568C419.176 111.812 419.029 112.033 418.844 112.219C418.659 112.405 418.439 112.553 418.196 112.653C417.954 112.754 417.694 112.805 417.432 112.804Z" fill="#3F3D56"/>
<path opacity="0.8" d="M120.471 115.064C122.08 115.064 123.384 113.757 123.384 112.144C123.384 110.531 122.08 109.224 120.471 109.224C118.861 109.224 117.557 110.531 117.557 112.144C117.557 113.757 118.861 115.064 120.471 115.064Z" fill="#FA5959"/>
<path opacity="0.8" d="M128.485 115.064C130.095 115.064 131.399 113.757 131.399 112.144C131.399 110.531 130.095 109.224 128.485 109.224C126.876 109.224 125.572 110.531 125.572 112.144C125.572 113.757 126.876 115.064 128.485 115.064Z" fill="#FED253"/>
<path opacity="0.8" d="M136.508 115.064C138.117 115.064 139.421 113.757 139.421 112.144C139.421 110.531 138.117 109.224 136.508 109.224C134.898 109.224 133.594 110.531 133.594 112.144C133.594 113.757 134.898 115.064 136.508 115.064Z" fill="#8CCF4D"/>
<path d="M378.448 221.24C371.841 212.442 362.267 206.89 351.611 206.89C340.955 206.89 331.381 212.442 324.774 221.24C326.235 224.83 328.396 228.092 331.132 230.834C334.512 234.22 338.675 236.716 343.251 238.098C347.827 239.48 352.673 239.706 357.358 238.756C362.042 237.807 366.419 235.71 370.099 232.654C373.779 229.598 376.647 225.676 378.448 221.24Z" fill="#2FB245"/>
<path d="M321.285 226.39C320.815 226.187 320.368 225.933 319.953 225.631C319.326 225.117 318.824 224.466 318.485 223.728C318.918 222.836 319.1 221.843 319.011 220.856C318.923 219.868 318.567 218.924 317.982 218.124C317.397 217.325 316.605 216.7 315.692 216.319C314.779 215.937 313.78 215.812 312.801 215.957C311.823 216.103 310.902 216.514 310.14 217.145C309.377 217.776 308.8 218.604 308.472 219.539C308.145 220.475 308.078 221.482 308.279 222.453C308.48 223.423 308.942 224.32 309.615 225.047C309.995 225.451 310.428 225.801 310.902 226.086C311.518 226.444 312.019 226.97 312.347 227.603C312.967 228.856 313.819 229.979 314.86 230.91C315.928 231.828 317.081 232.641 318.303 233.337C316.62 238.111 315.666 243.113 315.473 248.173C313.516 248.206 311.574 248.52 309.706 249.105C308.75 249.403 307.847 249.854 307.034 250.44C306.816 250.414 306.596 250.399 306.376 250.395C305.383 250.395 304.409 250.667 303.559 251.182C302.709 251.697 302.017 252.436 301.556 253.317C301.095 254.199 300.884 255.19 300.945 256.183C301.006 257.177 301.337 258.134 301.902 258.952C302.467 259.771 303.245 260.418 304.152 260.825C305.058 261.232 306.058 261.382 307.044 261.26C308.029 261.138 308.963 260.748 309.743 260.132C310.523 259.516 311.12 258.699 311.469 257.767C311.684 257.166 312.06 256.636 312.555 256.235C313.05 255.834 313.646 255.577 314.277 255.492C314.742 255.435 315.209 255.405 315.677 255.401C316.327 262.537 318.537 269.443 322.148 275.629C318.939 278.124 316.964 280.847 316.131 283.865C315.976 283.952 315.831 284.056 315.7 284.176C315.472 284.355 315.259 284.553 315.064 284.768C314.416 285.483 313.969 286.357 313.769 287.302C313.569 288.247 313.623 289.228 313.927 290.145C314.23 291.062 314.771 291.882 315.495 292.52C316.218 293.158 317.098 293.592 318.044 293.777C318.99 293.962 319.969 293.891 320.878 293.572C321.788 293.253 322.597 292.697 323.222 291.962C323.847 291.226 324.265 290.338 324.434 289.387C324.603 288.436 324.517 287.457 324.184 286.55C323.937 285.892 323.889 285.175 324.046 284.49C324.204 283.804 324.56 283.181 325.069 282.697C325.433 282.356 325.826 281.992 326.356 281.59C332.494 288.773 339.797 293.376 348.917 293.922V245.192C336.861 244.532 326.356 236.667 321.285 226.39ZM396.839 250.448C396.619 250.451 396.399 250.466 396.18 250.493C395.359 249.92 394.459 249.471 393.509 249.159C391.641 248.571 389.699 248.257 387.742 248.226C387.532 243.17 386.578 238.174 384.911 233.398C386.134 232.701 387.287 231.889 388.355 230.971C389.429 229.986 390.311 228.811 390.958 227.505C391.261 226.937 391.728 226.475 392.298 226.177C393.221 225.657 393.973 224.878 394.46 223.936C394.947 222.993 395.149 221.929 395.04 220.873C394.932 219.817 394.518 218.816 393.849 217.993C393.181 217.169 392.287 216.56 391.277 216.239C390.267 215.918 389.186 215.9 388.166 216.187C387.147 216.474 386.233 217.053 385.537 217.854C384.842 218.654 384.395 219.641 384.251 220.693C384.108 221.744 384.274 222.815 384.73 223.773C384.396 224.514 383.893 225.167 383.261 225.677C382.837 226.028 382.392 226.355 381.929 226.655C376.859 236.925 366.362 244.57 354.321 245.23V294.006C363.402 293.46 370.751 288.833 376.881 281.673C377.358 282.053 377.759 282.394 378.1 282.712C378.631 283.206 379.005 283.846 379.174 284.552C379.344 285.257 379.302 285.997 379.053 286.679C378.722 287.585 378.637 288.562 378.806 289.511C378.975 290.461 379.393 291.348 380.017 292.082C380.64 292.817 381.447 293.372 382.355 293.692C383.263 294.011 384.24 294.083 385.185 293.901C386.129 293.718 387.009 293.287 387.733 292.652C388.458 292.017 389.001 291.201 389.307 290.287C389.613 289.372 389.672 288.393 389.476 287.449C389.281 286.504 388.839 285.629 388.196 284.912C388.001 284.697 387.788 284.499 387.56 284.32C387.31 284.123 387.129 284.009 387.129 284.009C386.296 280.976 384.328 278.268 381.074 275.773C384.686 269.587 386.895 262.681 387.545 255.545C387.993 255.55 388.44 255.58 388.885 255.636C389.529 255.719 390.139 255.974 390.652 256.375C391.164 256.775 391.56 257.305 391.798 257.911C392.25 259.065 393.082 260.03 394.155 260.647C395.228 261.263 396.479 261.494 397.702 261.301C398.924 261.108 400.043 260.503 400.876 259.586C401.709 258.669 402.204 257.495 402.28 256.258C402.318 255.515 402.206 254.772 401.95 254.073C401.695 253.375 401.301 252.735 400.793 252.193C400.285 251.65 399.673 251.216 398.993 250.916C398.314 250.616 397.581 250.457 396.839 250.448Z" fill="#2FB245"/>
<path d="M515.395 565.441C514.955 564.742 514.399 564.124 513.752 563.613C510.445 560.481 508.909 555.885 508.091 551.379C507.274 546.874 507.039 542.278 505.73 537.871C505.018 535.612 504.127 533.413 503.066 531.295C502.309 529.672 501.355 526.494 499.971 525.357C499.699 525.121 499.37 524.962 499.017 524.894C498.363 523.501 497.43 522.256 496.277 521.238C494.113 519.274 491.471 517.712 490.026 515.171C489.629 514.29 489.139 513.453 488.565 512.675C487.589 511.598 486.045 511.159 485.144 510.021C483.971 508.549 484.236 506.441 484.388 504.568C484.539 502.694 484.388 500.449 482.768 499.463C481.799 498.864 480.551 498.925 479.544 498.394C478.03 497.635 477.432 495.724 477.463 494.018C477.493 492.311 478.023 490.65 478.159 488.943C478.583 483.513 475.011 478.113 476.388 472.849C476.91 470.854 478.106 469.125 478.991 467.267C479.3 466.648 479.553 466.004 479.748 465.34C482.11 466.279 484.591 466.879 487.12 467.123C482.95 457.748 484.009 446.857 482.064 436.785L482.314 436.443C484.278 433.847 485.394 430.705 485.508 427.448C485.508 423.701 483.759 420.197 482.972 416.526C482.299 413.409 482.329 410.148 481.459 407.084C480.855 405.179 480.053 403.344 479.067 401.608C478.124 399.853 477.132 398.126 476.093 396.427C475.124 393.211 474.153 389.996 473.179 386.78C471.817 382.267 470.417 377.678 467.768 373.78C466.799 372.354 466.504 369.457 465.013 368.592C463.802 367.964 462.429 367.723 461.078 367.902C458.974 366.719 457.127 365.012 456.862 362.676C456.836 362.166 456.887 361.654 457.013 361.159H457.271C460.601 360.856 462.288 357.913 464.022 355.334C466.822 351.163 465.755 345.52 464.022 340.772C463.592 339.274 462.814 337.899 461.751 336.76C459.322 334.484 455.477 334.985 452.344 333.885C451.292 333.521 450.308 332.968 449.233 332.71C447.152 332.224 444.972 332.907 443.065 333.87C441.158 334.833 439.379 336.077 437.381 336.836C435.383 337.594 432.916 338.193 432.424 340.249C432.286 340.941 432.344 341.658 432.591 342.319C433.051 343.638 433.859 344.807 434.929 345.702C434.079 347.46 433.619 349.382 433.581 351.335C433.543 353.288 433.928 355.226 434.71 357.016C435.492 358.805 436.652 360.404 438.111 361.7C439.569 362.997 441.29 363.961 443.156 364.527C443.731 365.452 444.269 366.393 444.76 367.356C445.638 369.055 446.38 371.057 446.077 372.877C445.53 373.46 445.024 374.081 444.564 374.736C442.392 377.769 441.158 381.327 440.023 384.876C438.498 389.408 437.277 394.038 436.367 398.733C434.521 402.669 432.265 406.431 430.926 410.565C428.527 410.568 426.139 410.247 423.827 409.609L417.439 408.161C415.214 407.652 412.898 407.106 411.158 405.635C410.234 404.877 409.515 403.868 408.577 403.117C407.638 402.366 405.754 401.486 404.725 402.108C404.537 402.223 404.361 402.358 404.202 402.51C403.264 400.606 402.371 398.718 401.281 396.875C399.715 394.296 397.384 391.937 394.432 391.444C392.628 391.154 390.783 391.584 389.293 392.643C387.568 393.871 386.485 396.435 387.779 398.164C388.103 398.549 388.454 398.909 388.831 399.241C389.708 400.253 390.49 401.342 391.17 402.495C393.61 405.927 397.259 408.302 401.38 409.139L401.115 409.897C400.577 411.475 399.435 413.379 399.722 415.017L428.133 424.763C429.956 425.505 431.89 425.933 433.855 426.03C434.621 426.023 435.384 425.921 436.125 425.726V427.183V427.243C436.201 437.247 434.612 447.183 434.316 457.179C434.263 459.007 434.316 460.972 435.467 462.398C436.753 463.96 439.039 464.271 441.029 463.915C441.509 463.834 441.978 463.727 442.437 463.596C443.11 466.112 443.596 468.675 443.89 471.264L445.767 484.81C446.009 486.197 446.107 487.605 446.062 489.012C445.843 492.19 444.17 495.034 442.959 497.969C441.748 500.904 441.029 504.416 442.619 507.161C443.118 508.011 443.807 508.731 444.253 509.611C444.821 510.973 445.079 512.445 445.01 513.919C445.126 518.005 445.237 522.095 445.343 526.191C445.013 526.137 444.674 526.204 444.39 526.381C442.815 527.609 442.99 533.457 442.876 535.27C442.755 538.304 442.876 541.398 442.709 544.462C442.513 548.592 441.85 552.686 440.734 556.666C440.461 557.96 439.865 559.163 439.001 560.162C438.116 560.934 437.06 561.482 435.921 561.763C432.15 562.946 428.207 563.484 424.258 563.355C422.661 563.302 420.996 563.15 419.513 563.757C418.03 564.364 416.834 566.033 417.371 567.55C417.833 568.824 419.233 569.43 420.497 569.908C423.384 570.927 426.171 572.212 428.822 573.746C429.842 574.443 430.918 575.054 432.038 575.574C433.112 575.961 434.223 576.235 435.353 576.393L448.772 578.714C451.519 579.184 454.826 579.472 456.574 577.197C457.52 575.968 457.657 574.3 457.611 572.737C457.536 569.704 456.93 566.617 457.324 563.583C457.623 561.789 458.094 560.029 458.731 558.327C460.068 554.347 461.41 550.371 462.758 546.396C464.105 542.407 465.467 538.379 465.989 534.193C466.178 532.676 466.163 530.947 465.005 529.999C464.713 529.758 464.372 529.582 464.006 529.483C463.961 525.827 463.484 522.164 463.689 518.508C463.742 517.598 463.832 516.688 463.908 515.77C464.61 516.438 465.236 517.181 465.777 517.985C467.072 520.017 467.548 522.702 469.524 524.052C471.204 525.205 473.694 525.144 474.874 526.813C475.254 527.454 475.539 528.146 475.722 528.868C476.407 530.657 477.436 532.293 478.749 533.685C479.2 535.349 479.827 536.961 480.619 538.493C481.734 540.855 482.844 543.208 483.949 545.554C485.085 548.087 486.347 550.56 487.733 552.964C488.79 554.478 489.643 556.126 490.268 557.864C491.335 561.611 489.594 565.722 486.84 568.482C484.085 571.243 480.452 572.828 476.872 574.307C476.495 574.435 476.149 574.642 475.858 574.914C475.548 575.282 475.384 575.752 475.397 576.234C475.397 577.986 476.835 579.488 478.484 580.026C480.171 580.48 481.938 580.545 483.653 580.216C493.326 579.04 502.968 576.674 511.52 571.964C512.799 571.356 513.932 570.479 514.842 569.393C515.281 568.845 515.565 568.189 515.662 567.493C515.759 566.797 515.667 566.088 515.395 565.441Z" fill="url(#paint0_linear_138_690)"/>
<path d="M474.519 395.358C476.133 397.841 477.647 400.384 479.06 402.988C480.049 404.71 480.854 406.533 481.459 408.426C482.337 411.46 482.314 414.698 482.972 417.793C483.729 421.434 485.5 424.907 485.5 428.639C485.385 431.872 484.269 434.989 482.306 437.558C480.35 440.105 478.111 442.421 475.631 444.46C469.916 429.623 466.724 413.93 466.186 398.035C466.111 395.836 466.095 393.568 466.898 391.513C467.39 390.223 469.751 386.689 471.272 388.077C471.824 388.585 471.968 390.875 472.309 391.641C472.947 392.937 473.686 394.179 474.519 395.358Z" fill="#2F2E41"/>
<path opacity="0.1" d="M474.519 395.358C476.133 397.841 477.647 400.384 479.06 402.988C480.049 404.71 480.854 406.533 481.459 408.426C482.337 411.46 482.314 414.698 482.972 417.793C483.729 421.434 485.5 424.907 485.5 428.639C485.385 431.872 484.269 434.989 482.306 437.558C480.35 440.105 478.111 442.421 475.631 444.46C469.916 429.623 466.724 413.93 466.186 398.035C466.111 395.836 466.095 393.568 466.898 391.513C467.39 390.223 469.751 386.689 471.272 388.077C471.824 388.585 471.968 390.875 472.309 391.641C472.947 392.937 473.686 394.179 474.519 395.358Z" fill="black"/>
<path d="M274.991 291.882C269.004 297.874 268.285 300.513 264.69 301.704C261.095 302.895 248.161 309.607 252.225 317.048L263.154 324.283L263.472 324.496L265.144 329.532L248.615 359.02C248.615 359.02 221.37 346.536 218.698 365.005C216.027 383.473 217.722 388.517 217.003 398.377C216.284 408.236 217.238 411.088 214.839 411.088C212.439 411.088 211.493 404.611 211.493 404.611C211.493 404.611 211.342 404.315 211.077 403.762C207.513 396.336 183.317 341.826 222.074 304.359C222.074 304.359 240.026 303.176 244.347 282.546C247.329 268.287 257.758 269.515 264.69 272.42C266.943 273.306 269.043 274.542 270.911 276.084C272.593 277.679 274.088 279.46 275.369 281.393C277.344 284.518 278.419 288.439 274.991 291.882Z" fill="#D0D2D5"/>
<path opacity="0.1" d="M263.472 324.496L265.144 329.532L248.615 359.02C248.615 359.02 221.37 346.536 218.698 365.005C216.027 383.473 217.722 388.517 217.003 398.377C216.284 408.236 217.238 411.088 214.838 411.088C212.439 411.088 211.493 404.611 211.493 404.611C211.493 404.611 211.342 404.315 211.077 403.762C209.874 394.539 203.774 340.59 225.888 343.457C225.888 343.457 243.832 351.861 246.701 348.508C248.971 345.854 259.052 330.586 263.154 324.321L263.472 324.496Z" fill="black"/>
<path opacity="0.1" d="M275.369 281.347L264.441 293.793C264.441 293.793 251.749 310.813 249.115 310.093C248.326 309.92 247.523 309.826 246.716 309.812C245.837 309.745 244.996 309.429 244.289 308.902C243.582 308.375 243.039 307.658 242.722 306.834C242.405 306.01 242.328 305.112 242.499 304.246C242.67 303.38 243.082 302.58 243.689 301.939C248.018 297.389 255.994 288.75 256.517 286.831C257.039 284.912 262.117 276.501 264.66 272.382C266.913 273.268 269.013 274.504 270.881 276.046C272.573 277.637 274.078 279.415 275.369 281.347Z" fill="black"/>
<path d="M584.576 460.41C582.721 464.127 573.223 478.067 569.068 484.158L567.123 487.025C567.123 487.025 566.366 492.061 553.962 485.819C541.558 479.577 250.114 356.336 250.114 356.336L248.139 350.389L262.518 328.811L581.949 452.492C581.949 452.492 586.975 455.609 584.576 460.41Z" fill="#454B69"/>
<path opacity="0.1" d="M569.068 484.158L567.123 487.025C567.123 487.025 566.366 492.061 553.962 485.819C541.558 479.577 250.114 356.336 250.114 356.336L248.139 350.389L569.068 484.158Z" fill="black"/>
<path d="M393.274 403.655C390.315 403.17 387.03 403.405 384.73 405.332C383.339 406.512 382.46 408.187 382.277 410.004C382.081 412.105 383.299 414.6 385.403 414.759C385.909 414.765 386.415 414.732 386.917 414.661C388.246 414.655 389.573 414.766 390.882 414.994C393.46 415.237 396.058 414.857 398.459 413.886C400.859 412.914 402.993 411.38 404.679 409.412C406.488 407.137 404.104 406.151 401.97 405.696C399.049 405.074 396.195 404.126 393.274 403.655Z" fill="#FBBEBE"/>
<path d="M443.89 472.151L445.767 485.515C446.006 486.895 446.102 488.295 446.055 489.694C445.835 492.842 444.163 495.663 442.959 498.576C441.756 501.488 441.022 504.977 442.619 507.677C443.111 508.519 443.799 509.24 444.246 510.112C444.813 511.461 445.072 512.92 445.003 514.382L445.517 533.343C451.359 533.743 457.223 533.71 463.06 533.245C463.289 533.256 463.514 533.186 463.696 533.047C463.85 532.852 463.928 532.606 463.916 532.357C464.173 527.92 463.401 523.476 463.651 519.039C463.742 517.416 463.969 515.8 463.999 514.17C464.09 507.563 460.835 501.094 461.819 494.564C462.128 492.916 462.533 491.287 463.03 489.687C466.141 478.31 465.482 466.357 464.794 454.608C464.805 454.419 464.752 454.232 464.642 454.077C464.531 453.965 464.388 453.889 464.233 453.857C460.922 452.862 457.421 452.68 454.025 453.327C450.629 453.973 447.438 455.43 444.723 457.574C443.898 458.241 441.816 458.886 441.272 459.682C440.515 460.79 441.506 461.897 441.945 463.073C442.917 466.02 443.57 469.064 443.89 472.151Z" fill="#3F3D56"/>
<path opacity="0.1" d="M443.89 472.151L445.767 485.515C446.006 486.895 446.102 488.295 446.055 489.694C445.835 492.842 444.163 495.663 442.959 498.576C441.756 501.488 441.022 504.977 442.619 507.677C443.111 508.519 443.799 509.24 444.246 510.112C444.813 511.461 445.072 512.92 445.003 514.382L445.517 533.343C451.359 533.743 457.223 533.71 463.06 533.245C463.289 533.256 463.514 533.186 463.696 533.047C463.85 532.852 463.928 532.606 463.916 532.357C464.173 527.92 463.401 523.476 463.651 519.039C463.742 517.416 463.969 515.8 463.999 514.17C464.09 507.563 460.835 501.094 461.819 494.564C462.128 492.916 462.533 491.287 463.03 489.687C466.141 478.31 465.482 466.357 464.794 454.608C464.805 454.419 464.752 454.232 464.642 454.077C464.531 453.965 464.388 453.889 464.233 453.857C460.922 452.862 457.421 452.68 454.025 453.327C450.629 453.973 447.438 455.43 444.723 457.574C443.898 458.241 441.816 458.886 441.272 459.682C440.515 460.79 441.506 461.897 441.945 463.073C442.917 466.02 443.57 469.064 443.89 472.151Z" fill="black"/>
<path d="M478.984 468.124C478.098 469.967 476.91 471.681 476.38 473.661C475.003 478.886 478.568 484.279 478.144 489.634C478.008 491.325 477.485 492.971 477.448 494.662C477.41 496.353 478.03 498.234 479.529 499.016C480.535 499.531 481.799 499.478 482.745 500.07C484.342 501.048 484.524 503.271 484.365 505.136C484.206 507.002 483.941 509.088 485.122 510.544C486.022 511.674 487.566 512.114 488.535 513.184C489.111 513.951 489.601 514.78 489.996 515.656C491.441 518.189 494.082 519.737 496.247 521.724C498.411 523.711 500.243 526.623 499.274 529.377C498.563 531.394 496.565 532.638 494.642 533.586C491.135 535.323 487.433 536.635 483.616 537.492C483.206 537.616 482.772 537.64 482.352 537.56C481.926 537.404 481.546 537.144 481.247 536.802C479.014 534.61 476.706 532.312 475.677 529.361C475.494 528.646 475.208 527.962 474.829 527.329C473.648 525.668 471.158 525.728 469.478 524.583C467.51 523.241 467.034 520.578 465.747 518.569C464.461 516.559 462.576 515.36 461.206 513.593C458.89 510.65 458.323 506.722 456.665 503.362C455.961 501.936 455.061 500.601 454.501 499.114C453.936 497.332 453.587 495.489 453.464 493.623C452.397 484.764 449.68 475.845 451.39 467.077C451.769 465.151 452.351 463.285 452.594 461.298C453.01 457.862 452.351 454.343 452.858 450.915C452.871 450.484 452.98 450.062 453.178 449.68C453.376 449.298 453.657 448.965 454.001 448.707C454.41 448.523 454.855 448.433 455.303 448.442C459.79 448.202 464.288 448.303 468.759 448.745C471.03 448.965 473.573 449.428 474.935 451.286C476.093 452.879 476.032 455.01 476.403 456.944C476.865 459.326 478.068 460.623 479.332 462.489C480.596 464.354 479.915 466.197 478.984 468.124Z" fill="#3F3D56"/>
<path d="M461.524 529.756C462.72 529.756 464.044 529.68 464.968 530.438C466.118 531.386 466.133 533.123 465.951 534.602C465.422 538.759 464.067 542.756 462.712 546.738L458.686 558.577C458.049 560.266 457.577 562.014 457.278 563.795C456.885 566.829 457.49 569.863 457.566 572.897C457.566 574.414 457.468 576.097 456.521 577.318C454.811 579.525 451.474 579.268 448.726 578.835L435.323 576.56C434.192 576.409 433.081 576.137 432.008 575.748C430.89 575.231 429.814 574.625 428.792 573.936C426.139 572.417 423.352 571.147 420.467 570.143C419.21 569.673 417.803 569.074 417.348 567.807C416.811 566.29 418.007 564.622 419.49 564.015C420.974 563.408 422.631 563.56 424.236 563.606C428.181 563.731 432.12 563.198 435.891 562.028C437.026 561.749 438.08 561.203 438.963 560.435C439.861 559.424 440.473 558.191 440.734 556.863C441.876 552.91 442.557 548.838 442.762 544.728C442.921 541.694 442.815 538.66 442.937 535.626C443.012 533.829 442.838 528.042 444.412 526.805C445.616 525.88 450.565 528.436 452.192 528.808C455.252 529.51 458.386 529.829 461.524 529.756Z" fill="#2F2E41"/>
<path d="M505.677 538.19C506.986 542.536 507.191 547.132 508.038 551.599C508.886 556.067 510.384 560.625 513.692 563.735C514.335 564.247 514.89 564.862 515.334 565.555C515.613 566.204 515.708 566.918 515.608 567.618C515.508 568.318 515.216 568.977 514.766 569.522C513.853 570.6 512.72 571.472 511.444 572.077C502.899 576.75 493.28 579.108 483.585 580.276C481.872 580.598 480.109 580.533 478.424 580.087C476.774 579.525 475.313 578.039 475.344 576.294C475.328 575.816 475.489 575.348 475.798 574.982C476.092 574.713 476.44 574.508 476.819 574.383C480.392 572.912 484.017 571.311 486.779 568.596C489.542 565.881 491.275 561.77 490.208 558.084C489.576 556.358 488.718 554.723 487.657 553.222C486.273 550.838 485.01 548.385 483.873 545.873L480.543 538.872C479.567 536.825 478.583 534.716 478.416 532.456C482.6 532.644 486.777 531.973 490.692 530.484C492.519 529.737 494.222 528.714 495.74 527.45C497.027 526.373 498.2 524.363 499.933 525.766C501.325 526.889 502.203 530.052 503.021 531.652C504.082 533.755 504.971 535.942 505.677 538.19Z" fill="#2F2E41"/>
<path d="M456.877 364.36C457.21 367.272 460.026 369.191 462.712 370.344L445.707 375.782C446.804 373.674 445.918 371.095 444.829 368.956C443.941 367.263 442.929 365.638 441.801 364.094C441.635 363.859 441.446 363.564 441.567 363.291C441.675 363.112 441.844 362.98 442.044 362.919C445.54 361.356 449.143 359.741 452.964 359.172C454.069 359.013 456.158 358.573 456.983 359.695C457.808 360.818 456.718 363.017 456.877 364.36Z" fill="#FBBEBE"/>
<path opacity="0.1" d="M456.877 364.36C457.21 367.272 460.026 369.191 462.712 370.344L445.707 375.782C446.804 373.674 445.918 371.095 444.829 368.956C443.941 367.263 442.929 365.638 441.801 364.094C441.635 363.859 441.446 363.564 441.567 363.291C441.675 363.112 441.844 362.98 442.044 362.919C445.54 361.356 449.143 359.741 452.964 359.172C454.069 359.013 456.158 358.573 456.983 359.695C457.808 360.818 456.718 363.017 456.877 364.36Z" fill="black"/>
<path d="M446.993 366.719C454.358 366.719 460.328 360.735 460.328 353.355C460.328 345.974 454.358 339.991 446.993 339.991C439.628 339.991 433.658 345.974 433.658 353.355C433.658 360.735 439.628 366.719 446.993 366.719Z" fill="#FBBEBE"/>
<path d="M435.436 463.331C436.731 464.885 439.009 465.189 440.999 464.847C445.653 464.089 449.46 460.653 454.016 459.417C459.602 457.9 465.512 459.849 470.788 462.238C476.063 464.627 481.307 467.548 487.074 467.957C481.86 456.307 484.842 442.291 479.854 430.543C478.636 427.668 476.933 424.9 476.66 421.79C476.32 417.929 478.242 414.205 478.537 410.368C478.81 406.947 477.781 403.542 476.797 400.28C475.581 396.276 474.365 392.271 473.149 388.266C471.787 383.784 470.386 379.226 467.745 375.373C466.769 373.954 466.474 371.08 464.99 370.223C461.751 368.349 456.839 370.708 453.328 370.837C449.816 370.966 446.615 373.469 444.564 376.298C442.392 379.286 441.158 382.843 440.023 386.363C438.215 391.603 436.865 396.99 435.989 402.465C435.875 403.284 435.777 404.103 435.701 404.93C434.944 412.719 436.049 420.554 436.11 428.381V428.434C436.186 438.362 434.596 448.23 434.301 458.15C434.271 459.963 434.316 461.943 435.436 463.331Z" fill="#2F2E41"/>
<path opacity="0.1" d="M436.133 428.389C438.744 427.729 441.105 426.037 443.133 424.187C444.89 422.611 446.45 420.828 447.78 418.878C449.455 416.255 450.799 413.435 451.784 410.481C454.586 402.583 456.366 394.358 457.082 386.006C457.278 383.731 457.339 381.289 455.984 379.484C455.224 378.506 454.155 377.815 452.953 377.523C451.75 377.231 450.485 377.355 449.362 377.876C447.576 378.748 446.418 380.515 445.343 382.206C443.217 385.559 441.075 388.957 439.705 392.688C439.1 394.342 438.653 396.041 438.063 397.702C437.462 399.34 436.77 400.943 435.989 402.503C435.875 403.322 435.777 404.141 435.701 404.968C434.998 412.757 436.072 420.561 436.133 428.389Z" fill="black"/>
<path d="M455.946 378.02C457.301 379.825 457.24 382.29 457.051 384.535C456.337 392.887 454.557 401.112 451.753 409.01C450.777 411.988 449.432 414.832 447.75 417.474C446.418 419.423 444.858 421.206 443.103 422.784C440.53 425.135 437.397 427.236 433.908 427.266C431.944 427.173 430.01 426.75 428.186 426.015L399.767 416.322C399.48 414.699 400.623 412.802 401.16 411.24L402.674 406.742C403.105 405.498 403.605 404.156 404.732 403.481C405.86 402.806 407.646 403.731 408.584 404.482C409.523 405.233 410.234 406.219 411.158 406.985C412.906 408.441 415.214 408.987 417.439 409.488L423.819 410.921C426.132 411.556 428.52 411.875 430.918 411.869C432.697 406.424 436.08 401.63 437.994 396.23C438.585 394.577 439.031 392.87 439.644 391.217C441.007 387.485 443.156 384.095 445.283 380.735C446.35 379.051 447.508 377.284 449.301 376.404C450.427 375.877 451.699 375.75 452.907 376.044C454.114 376.337 455.186 377.034 455.946 378.02Z" fill="#2F2E41"/>
<path d="M451.246 356.373C451.145 355.494 450.873 354.644 450.444 353.871C450.221 353.483 449.881 353.177 449.473 352.997C449.064 352.817 448.609 352.772 448.174 352.869C446.842 353.287 446.395 355.35 445.003 355.418C444.064 355.463 443.391 354.508 443.095 353.613C442.8 352.718 442.641 351.694 441.938 351.064C441.447 350.697 440.885 350.438 440.288 350.306C437.056 349.282 433.718 347.393 432.644 344.17C432.391 343.516 432.331 342.802 432.47 342.115C432.962 340.074 435.497 339.46 437.427 338.724C439.357 337.989 441.211 336.73 443.103 335.774C444.995 334.818 447.19 334.143 449.271 334.629C450.327 334.961 451.365 335.349 452.382 335.789C455.515 336.881 459.352 336.373 461.781 338.641C462.843 339.766 463.621 341.128 464.052 342.615C465.747 347.333 466.822 352.93 464.014 357.071C462.281 359.627 460.601 362.547 457.271 362.858C453.396 363.184 451.859 359.665 451.246 356.373Z" fill="#2F2E41"/>
<g opacity="0.1">
<path d="M445.328 352.005C445.033 351.11 444.874 350.086 444.178 349.456C443.688 349.089 443.125 348.831 442.528 348.698C439.289 347.674 435.959 345.785 434.876 342.562C434.63 341.906 434.572 341.194 434.71 340.507C434.784 340.183 434.92 339.876 435.111 339.604C433.877 340.143 432.803 340.855 432.5 342.114C432.361 342.802 432.421 343.516 432.674 344.17C433.749 347.393 437.086 349.282 440.318 350.306C440.915 350.438 441.478 350.697 441.968 351.064C442.672 351.694 442.823 352.71 443.126 353.613C443.428 354.515 444.094 355.463 445.033 355.418C445.971 355.372 446.425 354.515 447.023 353.795C446.198 353.688 445.601 352.839 445.328 352.005Z" fill="black"/>
<path d="M459.496 361.228C455.606 361.584 454.069 358.034 453.441 354.765C453.358 353.889 453.101 353.038 452.684 352.263C452.461 351.876 452.12 351.571 451.712 351.391C451.304 351.211 450.849 351.166 450.414 351.261C449.724 351.597 449.143 352.123 448.741 352.778C449.089 352.812 449.424 352.925 449.72 353.109C450.017 353.293 450.267 353.543 450.452 353.84C450.88 354.614 451.153 355.464 451.254 356.343C451.867 359.612 453.403 363.169 457.309 362.805C458.852 362.634 460.277 361.894 461.305 360.727C460.734 360.994 460.122 361.163 459.496 361.228Z" fill="black"/>
</g>
<path d="M615.378 502.315C628.875 502.315 639.816 500.206 639.816 497.605C639.816 495.004 628.875 492.895 615.378 492.895C601.881 492.895 590.94 495.004 590.94 497.605C590.94 500.206 601.881 502.315 615.378 502.315Z" fill="#2FB245"/>
<path d="M614.969 499.334C616.541 499.334 617.815 497.664 617.815 495.603C617.815 493.542 616.541 491.871 614.969 491.871C613.398 491.871 612.124 493.542 612.124 495.603C612.124 497.664 613.398 499.334 614.969 499.334Z" fill="#3F3D56"/>
<path d="M614.969 494.768C616.541 494.768 617.815 493.098 617.815 491.037C617.815 488.976 616.541 487.305 614.969 487.305C613.398 487.305 612.124 488.976 612.124 491.037C612.124 493.098 613.398 494.768 614.969 494.768Z" fill="#3F3D56"/>
<path d="M614.969 490.21C616.541 490.21 617.815 488.539 617.815 486.478C617.815 484.418 616.541 482.747 614.969 482.747C613.398 482.747 612.124 484.418 612.124 486.478C612.124 488.539 613.398 490.21 614.969 490.21Z" fill="#3F3D56"/>
<path d="M614.969 485.644C616.541 485.644 617.815 483.973 617.815 481.913C617.815 479.852 616.541 478.181 614.969 478.181C613.398 478.181 612.124 479.852 612.124 481.913C612.124 483.973 613.398 485.644 614.969 485.644Z" fill="#3F3D56"/>
<path d="M614.969 481.078C616.541 481.078 617.815 479.408 617.815 477.347C617.815 475.286 616.541 473.615 614.969 473.615C613.398 473.615 612.124 475.286 612.124 477.347C612.124 479.408 613.398 481.078 614.969 481.078Z" fill="#3F3D56"/>
<path d="M614.969 476.52C616.541 476.52 617.815 474.849 617.815 472.788C617.815 470.727 616.541 469.057 614.969 469.057C613.398 469.057 612.124 470.727 612.124 472.788C612.124 474.849 613.398 476.52 614.969 476.52Z" fill="#3F3D56"/>
<path d="M614.969 471.954C616.541 471.954 617.815 470.283 617.815 468.222C617.815 466.162 616.541 464.491 614.969 464.491C613.398 464.491 612.124 466.162 612.124 468.222C612.124 470.283 613.398 471.954 614.969 471.954Z" fill="#3F3D56"/>
<path d="M625.618 437.027C626.006 436.531 626.36 436.009 626.677 435.465L619.2 434.236L627.29 434.289C628.063 432.597 628.484 430.765 628.528 428.904C628.572 427.044 628.239 425.194 627.548 423.466L616.695 429.109L626.7 421.737C625.761 420.117 624.5 418.709 622.995 417.599C621.489 416.489 619.772 415.701 617.95 415.284C616.128 414.868 614.24 414.832 612.403 415.178C610.566 415.524 608.82 416.245 607.273 417.297C605.727 418.348 604.413 419.707 603.412 421.289C602.412 422.872 601.748 424.643 601.46 426.494C601.173 428.345 601.268 430.235 601.741 432.047C602.213 433.859 603.053 435.554 604.207 437.027C603.6 437.798 603.077 438.632 602.648 439.515L612.358 444.574L602.005 441.093C601.282 443.242 601.105 445.538 601.489 447.773C601.874 450.009 602.808 452.113 604.207 453.895C602.629 455.91 601.647 458.328 601.375 460.875C601.103 463.422 601.551 465.994 602.668 468.297C603.786 470.601 605.527 472.543 607.694 473.902C609.86 475.26 612.364 475.981 614.92 475.981C617.476 475.981 619.98 475.26 622.147 473.902C624.313 472.543 626.055 470.601 627.172 468.297C628.289 465.994 628.738 463.422 628.466 460.875C628.193 458.328 627.212 455.91 625.633 453.895C627.524 451.488 628.552 448.514 628.552 445.45C628.552 442.386 627.524 439.412 625.633 437.005L625.618 437.027Z" fill="#2FB245"/>
<path opacity="0.1" d="M601.271 445.446C601.27 448.514 602.305 451.492 604.207 453.895C602.629 455.909 601.647 458.328 601.375 460.875C601.103 463.422 601.551 465.994 602.668 468.297C603.786 470.601 605.527 472.543 607.694 473.902C609.86 475.26 612.364 475.981 614.92 475.981C617.476 475.981 619.98 475.26 622.147 473.902C624.313 472.543 626.055 470.601 627.172 468.297C628.289 465.994 628.738 463.422 628.465 460.875C628.193 458.328 627.212 455.909 625.633 453.895C627.442 451.567 601.271 443.914 601.271 445.446Z" fill="black"/>
<path d="M112.327 596.227C131.759 596.227 147.512 593.191 147.512 589.446C147.512 585.701 131.759 582.665 112.327 582.665C92.8954 582.665 77.1427 585.701 77.1427 589.446C77.1427 593.191 92.8954 596.227 112.327 596.227Z" fill="#2FB245"/>
<path d="M111.737 591.941C113.998 591.941 115.831 589.534 115.831 586.564C115.831 583.594 113.998 581.187 111.737 581.187C109.476 581.187 107.643 583.594 107.643 586.564C107.643 589.534 109.476 591.941 111.737 591.941Z" fill="#3F3D56"/>
<path d="M111.737 585.373C113.998 585.373 115.831 582.966 115.831 579.996C115.831 577.026 113.998 574.618 111.737 574.618C109.476 574.618 107.643 577.026 107.643 579.996C107.643 582.966 109.476 585.373 111.737 585.373Z" fill="#3F3D56"/>
<path d="M111.737 578.805C113.998 578.805 115.831 576.397 115.831 573.428C115.831 570.458 113.998 568.05 111.737 568.05C109.476 568.05 107.643 570.458 107.643 573.428C107.643 576.397 109.476 578.805 111.737 578.805Z" fill="#3F3D56"/>
<path d="M111.737 572.237C113.998 572.237 115.831 569.829 115.831 566.859C115.831 563.889 113.998 561.482 111.737 561.482C109.476 561.482 107.643 563.889 107.643 566.859C107.643 569.829 109.476 572.237 111.737 572.237Z" fill="#3F3D56"/>
<path d="M111.737 565.669C113.998 565.669 115.831 563.261 115.831 560.291C115.831 557.321 113.998 554.914 111.737 554.914C109.476 554.914 107.643 557.321 107.643 560.291C107.643 563.261 109.476 565.669 111.737 565.669Z" fill="#3F3D56"/>
<path d="M111.737 559.093C113.998 559.093 115.831 556.685 115.831 553.715C115.831 550.745 113.998 548.338 111.737 548.338C109.476 548.338 107.643 550.745 107.643 553.715C107.643 556.685 109.476 559.093 111.737 559.093Z" fill="#3F3D56"/>
<path d="M111.737 552.525C113.998 552.525 115.831 550.117 115.831 547.147C115.831 544.177 113.998 541.77 111.737 541.77C109.476 541.77 107.643 544.177 107.643 547.147C107.643 550.117 109.476 552.525 111.737 552.525Z" fill="#3F3D56"/>
<path d="M127.07 502.201C127.624 501.477 128.13 500.717 128.584 499.926L117.822 498.151L129.462 498.242C130.577 495.806 131.186 493.167 131.249 490.487C131.313 487.807 130.831 485.143 129.832 482.656L114.227 490.802L128.606 480.183C127.26 477.842 125.446 475.804 123.279 474.196C121.111 472.588 118.636 471.445 116.009 470.839C113.381 470.232 110.656 470.175 108.006 470.67C105.355 471.166 102.834 472.204 100.601 473.719C98.3683 475.234 96.4709 477.194 95.0275 479.477C93.5841 481.76 92.6256 484.316 92.2119 486.986C91.7981 489.657 91.938 492.384 92.6228 494.998C93.3075 497.612 94.5225 500.056 96.1918 502.178C95.3079 503.286 94.5466 504.486 93.9213 505.758L107.9 513.039L92.998 508.026C91.9536 511.134 91.7015 514.455 92.2646 517.686C92.8277 520.917 94.1881 523.955 96.2221 526.525C93.945 529.426 92.5285 532.91 92.1344 536.58C91.7403 540.249 92.3846 543.956 93.9936 547.276C95.6025 550.596 98.1113 553.395 101.233 555.354C104.355 557.312 107.963 558.351 111.646 558.351C115.329 558.351 118.938 557.312 122.059 555.354C125.181 553.395 127.69 550.596 129.299 547.276C130.908 543.956 131.552 540.249 131.158 536.58C130.764 532.91 129.347 529.426 127.07 526.525C129.792 523.059 131.271 518.777 131.271 514.367C131.271 509.956 129.792 505.674 127.07 502.209V502.201Z" fill="#2FB245"/>
<path opacity="0.1" d="M92.0217 514.39C92.0225 518.793 93.502 523.067 96.2221 526.525C93.945 529.426 92.5285 532.91 92.1344 536.58C91.7403 540.249 92.3846 543.956 93.9936 547.276C95.6026 550.596 98.1113 553.395 101.233 555.354C104.355 557.312 107.963 558.351 111.646 558.351C115.329 558.351 118.938 557.312 122.059 555.354C125.181 553.395 127.69 550.596 129.299 547.276C130.908 543.956 131.552 540.249 131.158 536.58C130.764 532.91 129.347 529.426 127.07 526.525C129.681 523.172 92.0217 512.152 92.0217 514.39Z" fill="black"/>
</g>
<defs>
<linearGradient id="paint0_linear_138_690" x1="455.516" y1="581.464" x2="445.456" y2="332.6" gradientUnits="userSpaceOnUse">
<stop stop-color="#808080" stop-opacity="0.25"/>
<stop offset="0.54" stop-color="#808080" stop-opacity="0.12"/>
<stop offset="1" stop-color="#808080" stop-opacity="0.1"/>
</linearGradient>
<clipPath id="clip0_138_690">
<rect width="774" height="596" fill="white" transform="translate(0 0.226624)"/>
</clipPath>
</defs>
</svg>
