<svg width="77" height="68" viewBox="0 0 77 68" fill="none" xmlns="http://www.w3.org/2000/svg">
<g clip-path="url(#clip0_3_102)">
<path d="M41.5356 4.075L74.2108 60.67C75.6926 63.2367 73.8403 66.445 70.8766 66.445H5.52629C2.56255 66.445 0.710218 63.2367 2.19208 60.67L34.8672 4.075C36.3491 1.50833 40.0538 1.50833 41.5356 4.075Z" fill="#FFFF00" stroke="black" stroke-width="3.3"/>
<path d="M32.8052 43.8828H26.9676C26.5646 43.8828 26.2379 44.2094 26.2379 44.6122V50.4472C26.2379 50.85 26.5646 51.1766 26.9676 51.1766H32.8052C33.2082 51.1766 33.5349 50.85 33.5349 50.4472V44.6122C33.5349 44.2094 33.2082 43.8828 32.8052 43.8828Z" fill="#2F9E41"/>
<path d="M32.7577 35.1062H26.9201C26.5171 35.1062 26.1904 35.4328 26.1904 35.8356V41.6706C26.1904 42.0734 26.5171 42.4 26.9201 42.4H32.7577C33.1607 42.4 33.4873 42.0734 33.4873 41.6706V35.8356C33.4873 35.4328 33.1607 35.1062 32.7577 35.1062Z" fill="#2F9E41"/>
<path d="M41.5139 26.3536H35.6764C35.2734 26.3536 34.9467 26.6802 34.9467 27.083V32.918C34.9467 33.3209 35.2734 33.6474 35.6764 33.6474H41.5139C41.9169 33.6474 42.2436 33.3209 42.2436 32.918V27.083C42.2436 26.6802 41.9169 26.3536 41.5139 26.3536Z" fill="black"/>
<path d="M41.5139 35.1062H35.6764C35.2734 35.1062 34.9467 35.4328 34.9467 35.8356V41.6706C34.9467 42.0734 35.2734 42.4 35.6764 42.4H41.5139C41.9169 42.4 42.2436 42.0734 42.2436 41.6706V35.8356C42.2436 35.4328 41.9169 35.1062 41.5139 35.1062Z" fill="black"/>
<path d="M41.5139 43.8587H35.6764C35.2734 43.8587 34.9467 44.1853 34.9467 44.5881V50.4231C34.9467 50.8259 35.2734 51.1525 35.6764 51.1525H41.5139C41.9169 51.1525 42.2436 50.8259 42.2436 50.4231V44.5881C42.2436 44.1853 41.9169 43.8587 41.5139 43.8587Z" fill="black"/>
<path d="M32.7577 52.6112H26.9201C26.5171 52.6112 26.1904 52.9378 26.1904 53.3406V59.1756C26.1904 59.5784 26.5171 59.905 26.9201 59.905H32.7577C33.1607 59.905 33.4873 59.5784 33.4873 59.1756V53.3406C33.4873 52.9378 33.1607 52.6112 32.7577 52.6112Z" fill="#2F9E41"/>
<path d="M50.2703 26.3536H44.4328C44.0298 26.3536 43.7031 26.6802 43.7031 27.083V32.918C43.7031 33.3209 44.0298 33.6474 44.4328 33.6474H50.2703C50.6733 33.6474 51 33.3209 51 32.918V27.083C51 26.6802 50.6733 26.3536 50.2703 26.3536Z" fill="#2F9E41"/>
<path d="M50.2703 43.8587H44.4328C44.0298 43.8587 43.7031 44.1853 43.7031 44.5881V50.4231C43.7031 50.8259 44.0298 51.1525 44.4328 51.1525H50.2703C50.6733 51.1525 51 50.8259 51 50.4231V44.5881C51 44.1853 50.6733 43.8587 50.2703 43.8587Z" fill="#2F9E41"/>
<path d="M38.5528 60.2446C40.7693 60.2446 42.5662 58.4485 42.5662 56.233C42.5662 54.0175 40.7693 52.2214 38.5528 52.2214C36.3363 52.2214 34.5395 54.0175 34.5395 56.233C34.5395 58.4485 36.3363 60.2446 38.5528 60.2446Z" fill="black"/>
<path d="M30.0133 34.0232C32.2298 34.0232 34.0266 32.2271 34.0266 30.0116C34.0266 27.796 32.2298 26 30.0133 26C27.7968 26 26 27.796 26 30.0116C26 32.2271 27.7968 34.0232 30.0133 34.0232Z" fill="#CD191E"/>
</g>
<defs>
<clipPath id="clip0_3_102">
<rect width="76.45" height="67.65" fill="white"/>
</clipPath>
</defs>
</svg>
